<?xml version="1.0" encoding="UTF-8"?>
<svg xmlns="http://www.w3.org/2000/svg" xmlns:xlink="http://www.w3.org/1999/xlink" width="512pt" height="511pt" viewBox="0 0 512 511" version="1.1">
<g id="surface1">
<path style="fill-rule:nonzero;fill:rgb(0%,0%,0%);fill-opacity:0.956863;stroke-width:0.264583;stroke-linecap:butt;stroke-linejoin:miter;stroke:rgb(0%,0%,0%);stroke-opacity:1;stroke-miterlimit:4;" d="M 128.511681 69.013397 C 128.511681 69.013397 167.064014 75.059994 176.891538 90.93378 C 186.719063 106.811479 152.70161 124.951271 152.70161 124.951271 L 116.414764 183.159066 L 149.678357 205.083363 L 145.897338 350.225182 C 145.897338 350.225182 139.096972 462.864094 121.707409 429.601938 C 104.321752 396.339782 112.637651 397.850453 112.637651 397.850453 L 117.930296 397.095117 C 117.930296 397.095117 145.897338 255.733889 141.362459 230.784337 C 136.827579 205.838698 116.414764 189.964913 116.414764 189.964913 L 111.879885 185.428986 C 111.879885 185.428986 40.063959 290.506716 18.143423 273.873681 C -3.781019 257.24456 18.143423 253.463969 18.143423 253.463969 C 18.143423 253.463969 73.327552 226.24841 110.368258 161.994018 C 147.408964 97.739626 160.263648 104.541559 128.511681 69.013397 Z M 128.511681 69.013397 " transform="matrix(1.000061,0,0,0.998108,0,0)"/>
<path style="fill-rule:nonzero;fill:rgb(0%,0%,0%);fill-opacity:0.956863;stroke-width:0.264583;stroke-linecap:butt;stroke-linejoin:miter;stroke:rgb(0%,0%,0%);stroke-opacity:1;stroke-miterlimit:4;" d="M 269.120279 19.118206 C 269.120279 19.118206 327.327661 21.388126 320.523389 42.553174 C 313.719118 63.722135 311.453631 62.20755 311.453631 62.20755 Z M 269.120279 19.118206 " transform="matrix(1.000061,0,0,0.998108,0,0)"/>
<path style="fill-rule:nonzero;fill:rgb(0%,0%,0%);fill-opacity:0.956863;stroke-width:0.264583;stroke-linecap:butt;stroke-linejoin:miter;stroke:rgb(0%,0%,0%);stroke-opacity:1;stroke-miterlimit:4;" d="M 223.763675 70.524068 C 223.763675 70.524068 213.178384 90.178444 244.172585 81.861927 C 275.166785 73.549323 384.781183 55.405617 384.781183 55.405617 L 398.385821 53.135697 C 398.385821 53.135697 392.339315 28.945394 432.403274 58.426959 C 472.471139 87.912438 411.994364 65.988141 411.994364 65.988141 C 411.994364 65.988141 399.143587 75.81533 395.362568 74.304659 C 391.581549 72.790074 391.581549 62.20755 391.581549 62.20755 C 391.581549 62.20755 346.224945 66.743477 346.224945 69.768732 C 346.224945 72.790074 349.248197 85.642518 353.029216 92.448365 C 356.810235 99.250297 340.936205 131.757118 340.936205 131.757118 L 340.178439 204.328027 L 413.505991 199.792101 C 413.505991 199.792101 422.575749 174.846462 449.792837 196.01151 C 477.006018 217.180471 471.713373 224.73774 471.713373 224.73774 C 471.713373 224.73774 421.064123 205.083363 410.482738 205.838698 C 399.897447 206.594034 345.471084 211.12996 345.471084 211.12996 L 340.178439 238.345519 L 341.690065 250.438714 L 331.862541 267.827084 L 323.546642 248.928043 L 333.374167 215.665887 L 319.011763 208.108618 C 319.011763 208.108618 329.597054 207.349369 329.597054 203.572692 C 329.597054 199.792101 335.64356 125.706607 334.885793 122.685265 C 334.131933 119.66001 334.131933 82.617262 334.131933 82.617262 C 334.131933 82.617262 339.420673 63.722135 291.040815 80.351256 C 242.660958 96.980377 223.005909 106.811479 223.005909 106.811479 L 212.424524 81.106592 Z M 223.763675 70.524068 " transform="matrix(1.000061,0,0,0.998108,0,0)"/>
<path style="fill-rule:nonzero;fill:rgb(0%,0%,0%);fill-opacity:0.956863;stroke-width:0.264583;stroke-linecap:butt;stroke-linejoin:miter;stroke:rgb(0%,0%,0%);stroke-opacity:1;stroke-miterlimit:4;" d="M 242.660958 106.05223 C 242.660958 106.05223 287.263702 103.786224 281.213291 146.120233 C 275.166785 188.454242 273.655159 208.863954 273.655159 208.863954 L 303.891593 207.349369 L 301.626106 214.155216 L 275.166785 218.691142 L 273.655159 257.999896 L 256.269502 239.85619 L 263.069868 223.982404 C 263.069868 223.982404 243.414818 222.471733 240.391566 223.982404 C 237.368313 225.493075 202.596999 245.906701 202.596999 245.906701 L 183.69581 238.345519 L 167.064014 222.471733 C 167.064014 222.471733 201.839233 226.24841 210.155131 223.982404 C 218.47103 221.712484 266.097027 211.885296 266.097027 211.885296 L 264.581494 129.487198 Z M 242.660958 106.05223 " transform="matrix(1.000061,0,0,0.998108,0,0)"/>
<path style="fill-rule:nonzero;fill:rgb(0%,0%,0%);fill-opacity:0.956863;stroke-width:0.264583;stroke-linecap:butt;stroke-linejoin:miter;stroke:rgb(0%,0%,0%);stroke-opacity:1;stroke-miterlimit:4;" d="M 284.99431 135.533795 L 294.821834 126.465856 L 327.327661 143.094977 L 315.230744 162.749354 Z M 284.99431 135.533795 " transform="matrix(1.000061,0,0,0.998108,0,0)"/>
<path style="fill-rule:nonzero;fill:rgb(0%,0%,0%);fill-opacity:0.956863;stroke-width:0.264583;stroke-linecap:butt;stroke-linejoin:miter;stroke:rgb(0%,0%,0%);stroke-opacity:1;stroke-miterlimit:4;" d="M 288.017563 239.85619 C 288.017563 251.953298 237.368313 288.992132 237.368313 288.992132 C 237.368313 288.992132 195.792727 311.671764 190.500082 309.405757 C 185.207437 307.135837 210.908992 312.427099 210.908992 312.427099 C 210.908992 312.427099 285.74817 279.164943 290.286955 257.24456 C 294.821834 235.320263 288.017563 239.85619 288.017563 239.85619 Z M 288.017563 239.85619 " transform="matrix(1.000061,0,0,0.998108,0,0)"/>
<path style="fill-rule:nonzero;fill:rgb(0%,0%,0%);fill-opacity:0.956863;stroke-width:0.264583;stroke-linecap:butt;stroke-linejoin:miter;stroke:rgb(0%,0%,0%);stroke-opacity:1;stroke-miterlimit:4;" d="M 331.862541 267.827084 C 331.862541 267.827084 489.102936 278.409608 451.304463 311.671764 C 413.505991 344.93392 402.16684 375.17082 402.16684 375.17082 L 362.102881 415.238823 C 362.102881 415.238823 332.620307 463.619429 315.230744 456.058247 C 297.845087 448.500979 315.230744 432.62328 315.230744 432.62328 L 288.775329 387.267929 L 348.494337 411.458232 L 419.552497 333.596061 C 419.552497 333.596061 466.420727 301.08924 409.724972 289.751381 C 353.029216 278.409608 376.465285 286.726125 376.465285 286.726125 L 293.310208 368.368888 L 210.908992 428.087353 C 210.908992 428.087353 180.672557 425.066011 188.988456 412.213567 C 197.304354 399.365037 215.447777 397.850453 215.447777 397.850453 L 283.482683 354.761108 L 365.879994 281.434863 L 319.011763 276.898937 Z M 331.862541 267.827084 " transform="matrix(1.000061,0,0,0.998108,0,0)"/>
<path style="fill-rule:nonzero;fill:rgb(0%,0%,0%);fill-opacity:0.956863;stroke-width:0.264583;stroke-linecap:butt;stroke-linejoin:miter;stroke:rgb(0%,0%,0%);stroke-opacity:1;stroke-miterlimit:4;" d="M 204.108626 357.786364 L 238.879939 356.275693 L 309.942005 300.333905 C 309.942005 300.333905 325.058269 254.97464 296.333461 298.063984 C 267.608653 341.153329 204.108626 357.786364 204.108626 357.786364 Z M 204.108626 357.786364 " transform="matrix(1.000061,0,0,0.998108,0,0)"/>
</g>
</svg>
