<?xml version="1.0" encoding="UTF-8"?>
<svg xmlns="http://www.w3.org/2000/svg" xmlns:xlink="http://www.w3.org/1999/xlink" width="512pt" height="511pt" viewBox="0 0 512 511" version="1.1">
<g id="surface1">
<path style="fill-rule:nonzero;fill:rgb(0%,0%,0%);fill-opacity:0.956863;stroke-width:0.264583;stroke-linecap:butt;stroke-linejoin:miter;stroke:rgb(0%,0%,0%);stroke-opacity:1;stroke-miterlimit:4;" d="M 221.494282 61.452215 L 233.5912 58.426959 L 257.023362 90.93378 C 257.023362 90.93378 278.190038 102.275553 266.097027 115.124083 C 254.000109 127.976527 235.102826 227.762995 235.102826 227.762995 C 235.102826 227.762995 290.286955 224.73774 287.263702 221.712484 C 284.236544 218.691142 300.86834 149.89691 300.86834 149.89691 C 300.86834 149.89691 276.678412 119.66001 301.626106 126.465856 C 326.569895 133.267789 308.430378 169.5552 308.430378 169.5552 L 300.11448 216.421222 L 405.190093 230.029001 C 405.190093 230.029001 407.459485 206.594034 439.207546 240.611525 C 470.959513 274.629017 467.178494 284.460119 467.178494 284.460119 L 446.769584 286.726125 L 400.655213 245.906701 L 346.982711 236.834848 C 346.982711 236.834848 303.137733 240.611525 297.845087 238.345519 C 292.552442 236.075599 274.409019 330.570805 274.409019 330.570805 L 348.494337 384.242673 C 348.494337 384.242673 390.827689 412.968903 389.316062 435.648535 C 387.804436 458.328167 376.465285 439.429126 376.465285 439.429126 L 323.546642 391.04852 L 268.362513 354.761108 C 268.362513 354.761108 226.029162 446.231059 185.207437 451.522321 C 144.385711 456.813583 142.120225 458.328167 142.120225 458.328167 C 142.120225 458.328167 224.517535 406.16697 243.414818 360.05237 C 262.316008 313.941684 244.930351 356.275693 244.930351 356.275693 L 247.195837 341.153329 L 203.35086 320.743617 L 192.011708 340.397993 C 192.011708 340.397993 163.286901 338.131987 172.356659 312.427099 C 181.430324 286.726125 193.523335 291.262052 193.523335 291.262052 L 199.56984 291.262052 L 208.643505 247.417372 L 224.517535 254.219305 L 211.666758 301.08924 L 257.023362 321.498952 L 282.724917 235.320263 L 230.564041 239.85619 L 225.275301 254.97464 L 205.620252 245.906701 C 205.620252 245.906701 78.620197 298.823234 65.011654 314.697019 C 51.40311 330.570805 21.166676 298.063984 27.970948 282.190199 C 34.775219 266.316413 34.017453 266.316413 40.821725 275.388266 C 47.625997 284.460119 147.408964 251.197963 147.408964 251.197963 L 213.93615 230.029001 L 242.660958 103.030888 Z M 221.494282 61.452215 " transform="matrix(1.000061,0,0,0.998108,0,0)"/>
</g>
</svg>
