<?xml version="1.0" encoding="UTF-8"?>
<svg xmlns="http://www.w3.org/2000/svg" xmlns:xlink="http://www.w3.org/1999/xlink" width="512pt" height="511pt" viewBox="0 0 512 511" version="1.1">
<g id="surface1">
<path style="fill:none;stroke-width:0.264583;stroke-linecap:butt;stroke-linejoin:miter;stroke:rgb(0%,0%,0%);stroke-opacity:1;stroke-miterlimit:4;" d="M 137.58144 46.333765 C 148.16673 46.333765 169.333406 88.667774 169.333406 99.250297 C 169.333406 109.832821 158.748115 162.749354 158.748115 162.749354 C 158.748115 162.749354 179.914791 152.16683 190.500082 162.749354 C 201.081467 173.331878 190.500082 162.749354 201.081467 173.331878 C 211.666758 183.918315 201.081467 205.083363 201.081467 205.083363 L 158.748115 173.331878 " transform="matrix(1.000061,0,0,0.998108,0,0)"/>
<path style="fill-rule:nonzero;fill:rgb(0%,0%,0%);fill-opacity:0.956863;stroke-width:0.264583;stroke-linecap:butt;stroke-linejoin:miter;stroke:rgb(0%,0%,0%);stroke-opacity:1;stroke-miterlimit:4;" d="M 137.58144 46.333765 L 169.333406 100.005633 L 158.748115 162.749354 C 158.748115 162.749354 182.94195 154.432836 191.257848 161.238683 C 199.56984 168.040616 210.155131 186.939657 210.155131 186.939657 C 210.155131 186.939657 201.081467 205.083363 201.081467 205.083363 L 173.868285 180.137724 L 158.748115 173.331878 L 153.459376 388.023264 C 153.459376 388.023264 167.82178 445.475723 152.70161 437.159206 C 137.58144 428.846602 147.408964 420.530085 147.408964 420.530085 C 147.408964 420.530085 135.315953 398.605788 141.362459 384.242673 C 147.408964 369.879558 150.436123 343.423249 150.436123 343.423249 L 151.947749 106.05223 C 151.947749 106.05223 131.534934 90.93378 137.58144 46.333765 Z M 137.58144 46.333765 " transform="matrix(1.000061,0,0,0.998108,0,0)"/>
<path style="fill-rule:nonzero;fill:rgb(0%,0%,0%);fill-opacity:0.956863;stroke-width:0.264583;stroke-linecap:butt;stroke-linejoin:miter;stroke:rgb(0%,0%,0%);stroke-opacity:1;stroke-miterlimit:4;" d="M 99.786873 187.694993 L 131.534934 233.054257 L 111.126024 308.650422 C 111.126024 308.650422 92.982601 291.262052 97.517481 289.751381 C 102.05236 288.236796 114.149277 252.708634 114.149277 252.708634 L 96.76362 211.885296 Z M 99.786873 187.694993 " transform="matrix(1.000061,0,0,0.998108,0,0)"/>
<path style="fill-rule:nonzero;fill:rgb(0%,0%,0%);fill-opacity:0.956863;stroke-width:0.264583;stroke-linecap:butt;stroke-linejoin:miter;stroke:rgb(0%,0%,0%);stroke-opacity:1;stroke-miterlimit:4;" d="M 271.385766 56.916288 C 271.385766 56.916288 306.914846 69.013397 272.143532 131.757118 C 237.368313 194.500839 222.248143 223.227069 222.248143 223.227069 L 255.511736 186.184322 L 259.292755 166.529945 L 275.924551 199.792101 L 269.87414 259.510567 L 269.120279 378.951411 L 260.046615 411.458232 L 278.947804 446.231059 L 287.263702 446.231059 C 287.263702 446.231059 279.701664 415.238823 275.924551 395.584446 C 272.143532 375.930069 275.166785 378.951411 275.166785 378.951411 L 301.626106 397.850453 L 318.253997 383.487338 L 384.023417 363.832961 L 430.891648 379.706747 C 430.891648 379.706747 452.058323 370.638808 418.04087 351.739766 C 384.023417 332.840725 403.678466 349.469846 403.678466 349.469846 L 352.275356 355.516444 L 353.786983 310.916428 L 379.488538 298.063984 C 379.488538 298.063984 408.213345 301.08924 389.316062 290.506716 C 370.414873 279.924192 351.51759 293.528058 351.51759 293.528058 L 352.275356 254.97464 L 381.000164 245.147452 C 381.000164 245.147452 397.631961 243.636781 380.242398 235.320263 C 362.856741 227.00766 354.540843 240.611525 354.540843 240.611525 C 354.540843 240.611525 353.786983 198.28143 346.982711 192.986254 C 340.178439 187.694993 403.678466 180.89306 403.678466 180.89306 L 419.552497 179.382389 L 401.409074 164.260025 L 346.224945 183.159066 L 323.546642 184.673651 L 290.286955 196.01151 L 300.11448 209.619289 L 319.769529 201.302772 L 330.350914 208.863954 L 335.64356 245.906701 L 297.087321 259.510567 L 312.207491 274.629017 L 337.155186 263.291157 L 335.64356 298.063984 L 298.602854 310.161093 C 298.602854 310.161093 306.160986 320.743617 309.184238 322.254288 C 312.207491 323.768872 337.155186 318.47761 337.155186 318.47761 L 338.666812 359.297035 L 277.436178 370.638808 L 282.724917 219.446478 L 299.356714 208.863954 L 291.798582 193.745504 L 286.505936 194.500839 L 284.99431 180.89306 L 265.33926 165.019274 L 303.137733 96.225042 C 303.137733 96.225042 350.76373 90.93378 271.385766 56.916288 Z M 271.385766 56.916288 " transform="matrix(1.000061,0,0,0.998108,0,0)"/>
<path style="fill-rule:nonzero;fill:rgb(0%,0%,0%);fill-opacity:0.956863;stroke-width:0.264583;stroke-linecap:butt;stroke-linejoin:miter;stroke:rgb(0%,0%,0%);stroke-opacity:1;stroke-miterlimit:4;" d="M 315.230744 132.512453 L 325.058269 134.023124 L 350.005964 127.976527 L 362.856741 153.677501 C 362.856741 153.677501 346.224945 161.994018 343.201692 164.260025 C 340.178439 166.529945 326.569895 165.774609 326.569895 165.774609 C 326.569895 165.774609 304.649359 151.411495 315.230744 132.512453 Z M 315.230744 132.512453 " transform="matrix(1.000061,0,0,0.998108,0,0)"/>
</g>
</svg>
