<?xml version="1.0" encoding="UTF-8"?>
<svg xmlns="http://www.w3.org/2000/svg" xmlns:xlink="http://www.w3.org/1999/xlink" width="512pt" height="511pt" viewBox="0 0 512 511" version="1.1">
<g id="surface1">
<path style="fill-rule:nonzero;fill:rgb(0%,0%,0%);fill-opacity:0.956863;stroke-width:0.264583;stroke-linecap:butt;stroke-linejoin:miter;stroke:rgb(0%,0%,0%);stroke-opacity:1;stroke-miterlimit:4;" d="M 148.16673 56.916288 C 148.16673 56.916288 203.35086 80.351256 200.327607 107.566815 C 197.304354 134.77846 194.281101 135.533795 194.281101 135.533795 C 194.281101 135.533795 174.626052 115.879419 177.649304 112.858077 C 180.672557 109.832821 151.947749 148.386239 138.339206 127.976527 C 124.730662 107.566815 134.558187 96.980377 134.558187 96.980377 C 134.558187 96.980377 133.804327 103.030888 153.459376 101.516304 C 173.114425 100.005633 176.137678 98.494962 176.137678 98.494962 C 176.137678 98.494962 167.064014 69.768732 148.16673 56.916288 Z M 148.16673 56.916288 " transform="matrix(1.000061,0,0,0.998108,0,0)"/>
<path style="fill-rule:nonzero;fill:rgb(0%,0%,0%);fill-opacity:0.956863;stroke-width:0.264583;stroke-linecap:butt;stroke-linejoin:miter;stroke:rgb(0%,0%,0%);stroke-opacity:1;stroke-miterlimit:4;" d="M 235.102826 19.118206 L 244.172585 6.269676 C 244.172585 6.269676 260.046615 14.582279 263.827634 26.679388 C 267.608653 38.772583 269.87414 28.190059 269.87414 28.190059 L 283.482683 40.287167 C 283.482683 40.287167 285.74817 48.599771 272.143532 63.722135 C 258.534989 78.840585 258.534989 93.959035 258.534989 93.959035 C 258.534989 93.959035 328.839288 70.524068 334.885793 80.351256 C 340.936205 90.178444 318.253997 99.250297 318.253997 99.250297 L 285.74817 106.05223 C 285.74817 106.05223 245.684211 109.832821 249.46523 111.343492 C 253.242343 112.858077 231.321807 144.605648 231.321807 144.605648 L 286.505936 142.339642 C 286.505936 142.339642 306.914846 136.293044 297.087321 175.601798 C 287.263702 214.910551 279.701664 252.708634 279.701664 252.708634 L 269.87414 234.564928 L 167.82178 252.708634 C 167.82178 252.708634 167.82178 219.446478 148.16673 196.766845 C 128.511681 174.091127 135.315953 171.065871 135.315953 171.065871 L 165.552387 187.694993 C 165.552387 187.694993 173.114425 210.374625 173.114425 223.227069 C 173.114425 236.075599 203.35086 230.029001 203.35086 230.029001 C 203.35086 230.029001 209.397365 223.982404 229.052415 225.493075 C 248.707464 227.00766 266.850887 223.227069 266.850887 223.227069 L 281.213291 175.601798 C 281.213291 175.601798 322.035016 145.364897 263.827634 153.677501 C 205.620252 161.994018 183.69581 170.310536 183.69581 170.310536 C 183.69581 170.310536 139.096972 163.504689 176.891538 156.702757 C 214.690011 149.89691 216.201637 146.875568 216.201637 146.875568 L 245.684211 49.35902 C 245.684211 49.35902 263.069868 26.679388 235.102826 19.118206 Z M 235.102826 19.118206 " transform="matrix(1.000061,0,0,0.998108,0,0)"/>
<path style="fill-rule:nonzero;fill:rgb(0%,0%,0%);fill-opacity:0.956863;stroke-width:0.264583;stroke-linecap:butt;stroke-linejoin:miter;stroke:rgb(0%,0%,0%);stroke-opacity:1;stroke-miterlimit:4;" d="M 182.94195 185.428986 L 198.058214 191.475584 L 232.833434 183.159066 L 245.684211 180.137724 L 239.637705 190.720248 L 210.155131 202.058107 C 210.155131 202.058107 198.81598 217.180471 190.500082 202.058107 C 182.184184 186.939657 182.94195 185.428986 182.94195 185.428986 Z M 182.94195 185.428986 " transform="matrix(1.000061,0,0,0.998108,0,0)"/>
<path style="fill-rule:nonzero;fill:rgb(0%,0%,0%);fill-opacity:0.956863;stroke-width:0.264583;stroke-linecap:butt;stroke-linejoin:miter;stroke:rgb(0%,0%,0%);stroke-opacity:1;stroke-miterlimit:4;" d="M 63.500027 276.143601 L 80.131824 288.236796 L 187.476829 273.118346 C 187.476829 273.118346 189.742316 253.463969 203.35086 263.291157 C 216.959403 273.118346 247.953604 267.071748 247.953604 267.071748 L 227.540788 250.438714 L 256.269502 264.046493 L 353.786983 261.025151 C 353.786983 261.025151 364.368367 242.12611 381.000164 253.463969 C 397.631961 264.801828 395.362568 272.36301 395.362568 272.36301 L 354.540843 270.852339 L 267.608653 271.607675 L 265.33926 273.118346 L 344.713318 338.887322 L 410.482738 370.638808 C 410.482738 370.638808 399.143587 419.774749 363.614507 385.001922 C 328.081522 350.225182 254.757876 275.388266 254.757876 275.388266 L 210.908992 276.898937 L 122.465175 364.588297 C 122.465175 364.588297 71.815926 425.066011 41.575585 425.821347 C 11.339151 426.576682 15.12017 424.310676 15.12017 424.310676 C 15.12017 424.310676 104.321752 383.487338 144.385711 332.081476 C 184.453576 280.679528 181.430324 276.143601 181.430324 276.143601 L 83.155077 307.891173 C 83.155077 307.891173 41.575585 310.161093 63.500027 276.143601 Z M 63.500027 276.143601 " transform="matrix(1.000061,0,0,0.998108,0,0)"/>
<path style="fill-rule:nonzero;fill:rgb(0%,0%,0%);fill-opacity:0.956863;stroke-width:0.264583;stroke-linecap:butt;stroke-linejoin:miter;stroke:rgb(0%,0%,0%);stroke-opacity:1;stroke-miterlimit:4;" d="M 204.862486 295.042643 C 204.862486 295.042643 205.620252 283.70087 231.321807 300.333905 C 257.023362 316.963026 233.5912 325.279543 233.5912 325.279543 L 232.833434 334.351396 C 232.833434 334.351396 239.637705 335.862067 240.391566 338.887322 C 241.149332 341.912578 236.614453 349.469846 236.614453 349.469846 L 240.391566 371.394143 L 262.316008 381.976667 C 262.316008 381.976667 259.292755 397.850453 248.707464 393.314526 C 238.126079 388.7786 232.075667 399.365037 240.391566 412.968903 C 248.707464 426.576682 240.391566 456.813583 240.391566 456.813583 C 240.391566 456.813583 216.959403 478.737879 219.22489 458.328167 C 221.494282 437.918455 223.763675 440.184462 213.178384 425.821347 C 202.596999 411.458232 206.374112 410.702896 206.374112 410.702896 L 229.810181 416.749494 C 229.810181 416.749494 243.414818 385.001922 226.786928 380.465996 C 210.155131 375.930069 224.517535 369.124223 224.517535 369.124223 L 225.275301 315.452355 C 225.275301 315.452355 206.374112 299.578569 204.862486 295.042643 Z M 204.862486 295.042643 " transform="matrix(1.000061,0,0,0.998108,0,0)"/>
<path style="fill-rule:nonzero;fill:rgb(0%,0%,0%);fill-opacity:0.956863;stroke-width:0.264583;stroke-linecap:butt;stroke-linejoin:miter;stroke:rgb(0%,0%,0%);stroke-opacity:1;stroke-miterlimit:4;" d="M 292.552442 372.149478 C 292.552442 372.149478 331.10868 381.221331 340.936205 401.631044 C 350.76373 422.040756 339.420673 418.260165 339.420673 418.260165 C 339.420673 418.260165 288.775329 378.951411 292.552442 372.149478 Z M 292.552442 372.149478 " transform="matrix(1.000061,0,0,0.998108,0,0)"/>
<path style="fill-rule:nonzero;fill:rgb(0%,0%,0%);fill-opacity:0.956863;stroke-width:0.264583;stroke-linecap:butt;stroke-linejoin:miter;stroke:rgb(0%,0%,0%);stroke-opacity:1;stroke-miterlimit:4;" d="M 177.649304 357.031028 C 171.602799 360.807706 151.947749 372.904814 155.724863 397.095117 C 159.505882 421.28542 170.845033 418.260165 170.845033 418.260165 C 170.845033 418.260165 179.914791 412.213567 182.94195 386.512593 C 185.965203 360.807706 177.649304 357.031028 177.649304 357.031028 Z M 177.649304 357.031028 " transform="matrix(1.000061,0,0,0.998108,0,0)"/>
</g>
</svg>
