<?xml version="1.0" encoding="UTF-8"?>
<svg xmlns="http://www.w3.org/2000/svg" xmlns:xlink="http://www.w3.org/1999/xlink" width="512pt" height="511pt" viewBox="0 0 512 511" version="1.1">
<g id="surface1">
<path style="fill-rule:nonzero;fill:rgb(0%,0%,0%);fill-opacity:0.956863;stroke-width:0.264583;stroke-linecap:butt;stroke-linejoin:miter;stroke:rgb(0%,0%,0%);stroke-opacity:1;stroke-miterlimit:4;" d="M 257.023362 36.506576 C 257.023362 36.506576 281.213291 13.071609 294.821834 31.97065 C 308.430378 50.869691 313.719118 66.743477 313.719118 66.743477 L 298.602854 94.714371 L 308.430378 106.05223 L 324.304409 106.811479 C 324.304409 106.811479 323.546642 106.05223 343.959458 115.879419 C 364.368367 125.706607 380.242398 138.559051 380.242398 138.559051 C 380.242398 138.559051 375.707519 142.339642 363.614507 143.094977 C 351.51759 143.850313 343.201692 171.821207 343.201692 171.821207 C 343.201692 171.821207 314.476884 140.069722 298.602854 148.386239 C 282.724917 156.702757 287.263702 183.918315 287.263702 183.918315 L 275.166785 216.421222 C 275.166785 216.421222 284.99431 149.141575 260.046615 162.749354 C 235.102826 176.357133 210.155131 180.89306 210.155131 180.89306 L 189.742316 196.766845 L 173.114425 214.910551 L 179.914791 196.766845 C 179.914791 196.766845 115.660904 173.331878 129.269447 167.28528 C 142.874085 161.238683 170.091172 171.065871 170.091172 171.065871 L 270.631906 145.364897 L 278.947804 127.976527 L 266.097027 117.394003 C 266.097027 117.394003 294.064068 62.20755 257.023362 36.506576 Z M 257.023362 36.506576 " transform="matrix(1.000061,0,0,0.998108,0,0)"/>
<path style="fill-rule:nonzero;fill:rgb(0%,0%,0%);fill-opacity:0.956863;stroke-width:0.264583;stroke-linecap:butt;stroke-linejoin:miter;stroke:rgb(0%,0%,0%);stroke-opacity:1;stroke-miterlimit:4;" d="M 271.385766 236.075599 L 273.655159 278.409608 L 139.850832 373.660149 L 83.155077 400.120373 C 83.155077 400.120373 49.137623 421.28542 61.988401 388.7786 C 74.839178 356.275693 26.459321 419.774749 26.459321 419.774749 C 26.459321 419.774749 38.552333 441.695132 65.011654 429.601938 C 91.470975 417.504829 270.631906 290.506716 270.631906 290.506716 L 277.436178 400.120373 C 277.436178 400.120373 286.505936 433.382529 244.172585 422.796091 C 201.839233 412.213567 185.965203 406.16697 185.965203 406.16697 C 185.965203 406.16697 245.684211 454.547576 246.441977 469.666027 C 247.195837 484.784477 257.023362 491.590323 257.023362 491.590323 C 257.023362 491.590323 271.385766 486.299061 282.724917 455.302912 C 294.064068 424.310676 280.459431 282.190199 280.459431 282.190199 L 380.242398 209.619289 C 380.242398 209.619289 403.678466 194.500839 388.558296 186.939657 C 373.442032 179.382389 369.661013 199.036765 369.661013 199.036765 L 285.74817 267.827084 L 279.701664 266.316413 L 277.436178 233.809592 Z M 271.385766 236.075599 " transform="matrix(1.000061,0,0,0.998108,0,0)"/>
<path style="fill-rule:nonzero;fill:rgb(0%,0%,0%);fill-opacity:0.956863;stroke-width:0.264583;stroke-linecap:butt;stroke-linejoin:miter;stroke:rgb(0%,0%,0%);stroke-opacity:1;stroke-miterlimit:4;" d="M 159.505882 251.953298 L 167.82178 257.24456 L 164.040761 271.607675 L 168.57564 282.945534 L 161.017508 294.287307 L 152.70161 287.481461 L 149.678357 264.801828 Z M 159.505882 251.953298 " transform="matrix(1.000061,0,0,0.998108,0,0)"/>
<path style="fill-rule:nonzero;fill:rgb(0%,0%,0%);fill-opacity:0.956863;stroke-width:0.264583;stroke-linecap:butt;stroke-linejoin:miter;stroke:rgb(0%,0%,0%);stroke-opacity:1;stroke-miterlimit:4;" d="M 110.368258 349.469846 L 127.757821 331.326141 L 139.850832 341.912578 L 131.534934 350.980517 L 126.242288 366.102881 Z M 110.368258 349.469846 " transform="matrix(1.000061,0,0,0.998108,0,0)"/>
</g>
</svg>
