<?xml version="1.0" encoding="UTF-8"?>
<svg xmlns="http://www.w3.org/2000/svg" xmlns:xlink="http://www.w3.org/1999/xlink" width="512pt" height="511pt" viewBox="0 0 512 511" version="1.1">
<g id="surface1">
<path style="fill-rule:nonzero;fill:rgb(0%,0%,0%);fill-opacity:0.956863;stroke-width:0.264583;stroke-linecap:butt;stroke-linejoin:miter;stroke:rgb(0%,0%,0%);stroke-opacity:1;stroke-miterlimit:4;" d="M 97.517481 70.524068 C 97.517481 70.524068 139.096972 63.722135 157.236489 87.912438 C 175.379912 112.102741 173.868285 115.879419 173.868285 115.879419 L 160.263648 135.533795 L 235.102826 119.66001 C 235.102826 119.66001 245.684211 96.225042 266.097027 119.66001 C 286.505936 143.094977 270.631906 138.559051 270.631906 138.559051 L 217.713263 143.850313 C 217.713263 143.850313 219.982656 115.879419 160.263648 140.069722 C 100.540733 164.260025 100.540733 164.260025 100.540733 164.260025 L 126.242288 189.964913 C 126.242288 189.964913 133.804327 196.766845 105.833379 220.957149 C 77.862431 245.147452 52.160876 264.801828 52.914736 261.780487 C 53.672503 258.755231 142.874085 144.605648 82.39731 174.846462 C 21.924442 205.083363 35.52908 205.083363 35.52908 205.083363 L 16.631797 186.184322 C 16.631797 186.184322 -4.534879 165.019274 8.315898 152.922166 C 21.166676 140.828971 23.436068 149.141575 23.436068 149.141575 L 27.213181 165.019274 L 40.821725 169.5552 C 40.821725 169.5552 75.596945 158.968763 80.885684 157.458092 C 86.17833 155.947421 129.269447 137.803715 129.269447 137.803715 C 129.269447 137.803715 142.874085 81.861927 97.517481 70.524068 Z M 97.517481 70.524068 " transform="matrix(1.000061,0,0,0.998108,0,0)"/>
<path style="fill-rule:nonzero;fill:rgb(0%,0%,0%);fill-opacity:0.956863;stroke-width:0.264583;stroke-linecap:butt;stroke-linejoin:miter;stroke:rgb(0%,0%,0%);stroke-opacity:1;stroke-miterlimit:4;" d="M 168.57564 180.137724 C 168.57564 180.137724 200.327607 171.065871 217.713263 198.28143 C 235.102826 225.493075 251.730717 251.953298 284.236544 186.939657 C 316.74237 121.92993 316.74237 97.739626 316.74237 97.739626 C 316.74237 97.739626 294.821834 49.35902 289.529189 41.797838 C 284.236544 34.236656 287.263702 28.190059 287.263702 28.190059 C 287.263702 28.190059 350.005964 55.405617 334.131933 99.250297 C 318.253997 143.094977 301.626106 186.184322 301.626106 186.184322 L 333.374167 183.159066 C 333.374167 183.159066 355.298609 176.357133 358.321862 175.601798 C 361.345115 174.846462 421.064123 171.821207 421.064123 171.821207 C 421.064123 171.821207 416.529244 161.238683 422.575749 161.238683 C 428.626161 161.238683 445.254052 170.310536 445.254052 170.310536 L 449.035071 177.867804 L 433.16104 182.403731 L 390.827689 201.302772 L 402.16684 177.112469 L 362.102881 183.918315 L 337.155186 188.454242 L 301.626106 194.500839 L 297.087321 193.745504 L 290.286955 209.619289 L 281.213291 221.712484 C 281.213291 221.712484 273.655159 231.543586 267.608653 233.809592 C 261.558241 236.075599 247.195837 240.611525 247.195837 240.611525 L 235.856686 242.12611 L 224.517535 226.24841 C 224.517535 226.24841 173.868285 201.302772 168.57564 180.137724 Z M 168.57564 180.137724 " transform="matrix(1.000061,0,0,0.998108,0,0)"/>
<path style="fill-rule:nonzero;fill:rgb(0%,0%,0%);fill-opacity:0.956863;stroke-width:0.264583;stroke-linecap:butt;stroke-linejoin:miter;stroke:rgb(0%,0%,0%);stroke-opacity:1;stroke-miterlimit:4;" d="M 133.804327 233.809592 L 146.655104 227.762995 L 157.236489 233.809592 L 169.333406 259.510567 C 169.333406 259.510567 161.775274 305.625166 154.971002 316.963026 C 148.16673 328.304799 142.120225 338.131987 142.120225 338.131987 C 142.120225 338.131987 175.379912 345.689255 179.160931 378.196076 C 182.94195 410.702896 187.476829 406.922305 184.453576 406.922305 C 181.430324 406.922305 145.143478 380.465996 135.315953 366.102881 C 125.488428 351.739766 116.414764 359.297035 116.414764 359.297035 C 116.414764 359.297035 108.102772 400.120373 72.569786 402.386379 C 37.040706 404.656299 44.602744 400.875708 44.602744 400.875708 C 44.602744 400.875708 102.05236 381.221331 111.126024 359.297035 C 120.195783 337.376652 118.684156 343.423249 118.684156 343.423249 L 70.304299 295.797978 L 126.242288 316.20769 C 126.242288 316.20769 136.827579 288.236796 145.143478 270.097004 C 153.459376 251.953298 133.804327 233.809592 133.804327 233.809592 Z M 133.804327 233.809592 " transform="matrix(1.000061,0,0,0.998108,0,0)"/>
<path style="fill-rule:nonzero;fill:rgb(0%,0%,0%);fill-opacity:0.956863;stroke-width:0.264583;stroke-linecap:butt;stroke-linejoin:miter;stroke:rgb(0%,0%,0%);stroke-opacity:1;stroke-miterlimit:4;" d="M 294.821834 236.834848 L 303.891593 229.273666 L 307.672612 226.24841 L 317.500137 235.320263 L 334.885793 251.953298 L 329.597054 285.215454 L 303.137733 351.739766 L 356.810235 401.631044 L 500.442087 461.349509 L 392.339315 465.885436 L 297.087321 375.930069 C 297.087321 375.930069 237.368313 432.62328 207.131879 430.357273 C 176.891538 428.087353 176.137678 425.821347 176.137678 425.821347 C 176.137678 425.821347 262.316008 395.584446 275.166785 378.951411 C 288.017563 362.32229 284.236544 354.761108 284.236544 354.761108 C 284.236544 354.761108 247.953604 288.236796 226.029162 279.924192 C 204.108626 271.607675 204.108626 267.827084 204.108626 267.827084 L 243.414818 273.873681 L 272.897392 314.697019 C 272.897392 314.697019 301.626106 364.588297 314.476884 292.017387 C 327.327661 219.446478 294.821834 236.834848 294.821834 236.834848 Z M 294.821834 236.834848 " transform="matrix(1.000061,0,0,0.998108,0,0)"/>
</g>
</svg>
