<?xml version="1.0" encoding="UTF-8"?>
<svg xmlns="http://www.w3.org/2000/svg" xmlns:xlink="http://www.w3.org/1999/xlink" width="512pt" height="511pt" viewBox="0 0 512 511" version="1.1">
<g id="surface1">
<path style="fill-rule:nonzero;fill:rgb(0%,0%,0%);fill-opacity:0.956863;stroke-width:0.264583;stroke-linecap:butt;stroke-linejoin:miter;stroke:rgb(0%,0%,0%);stroke-opacity:1;stroke-miterlimit:4;" d="M 119.441923 75.81533 L 134.558187 80.351256 L 198.81598 73.549323 C 198.81598 73.549323 217.713263 17.607535 229.052415 33.481321 C 240.391566 49.35902 255.511736 82.617262 255.511736 82.617262 C 255.511736 82.617262 212.424524 100.760968 213.93615 121.92993 C 215.447777 143.094977 207.885739 136.293044 207.885739 136.293044 L 240.391566 130.242533 C 240.391566 130.242533 254.000109 111.343492 275.924551 132.512453 C 297.845087 153.677501 263.827634 146.875568 263.827634 146.875568 L 241.149332 140.828971 L 209.397365 148.386239 C 209.397365 148.386239 207.131879 164.260025 220.736516 173.331878 C 234.34506 182.403731 213.178384 189.964913 213.178384 189.964913 C 213.178384 189.964913 203.35086 313.941684 204.862486 309.405757 C 206.374112 304.869831 210.908992 465.1301 210.908992 465.1301 C 210.908992 465.1301 203.35086 472.691282 189.742316 450.766985 C 176.137678 428.846602 190.500082 430.357273 190.500082 430.357273 L 195.034961 316.963026 L 102.810126 365.343632 C 102.810126 365.343632 89.201582 398.605788 70.304299 375.17082 C 51.40311 351.739766 67.281046 337.376652 67.281046 337.376652 L 80.131824 354.761108 L 106.591145 339.642658 L 108.102772 217.935807 L 89.201582 196.766845 L 90.713209 186.939657 C 90.713209 186.939657 54.430269 165.774609 65.011654 158.968763 C 75.596945 152.16683 86.17833 162.749354 86.17833 162.749354 L 185.965203 139.314386 L 178.403165 155.192086 L 144.385711 158.968763 L 97.517481 180.89306 C 97.517481 180.89306 97.517481 201.302772 114.903137 210.374625 C 132.2927 219.446478 117.930296 236.075599 117.930296 236.075599 L 116.414764 338.131987 L 188.988456 304.869831 L 201.081467 254.219305 L 189.742316 250.438714 L 149.678357 275.388266 L 133.804327 256.489225 C 133.804327 256.489225 156.482629 251.953298 175.379912 242.881445 C 194.281101 233.809592 201.839233 239.85619 201.839233 239.85619 L 201.839233 178.62314 C 201.839233 178.62314 188.230689 150.656159 181.430324 152.16683 C 174.626052 153.677501 188.230689 137.04838 188.230689 137.04838 L 195.034961 91.689115 C 195.034961 91.689115 141.362459 127.976527 126.242288 103.030888 C 111.126024 78.08525 119.441923 75.81533 119.441923 75.81533 Z M 119.441923 75.81533 " transform="matrix(1.000061,0,0,0.998108,0,0)"/>
<path style="fill-rule:nonzero;fill:rgb(0%,0%,0%);fill-opacity:0.956863;stroke-width:0.264583;stroke-linecap:butt;stroke-linejoin:miter;stroke:rgb(0%,0%,0%);stroke-opacity:1;stroke-miterlimit:4;" d="M 131.534934 214.910551 L 149.678357 232.298922 C 149.678357 232.298922 149.678357 220.201813 154.213236 220.201813 C 158.748115 220.201813 190.500082 202.058107 190.500082 202.058107 L 183.69581 191.475584 L 172.356659 187.694993 L 167.064014 199.792101 L 154.971002 204.328027 L 145.143478 211.885296 Z M 131.534934 214.910551 " transform="matrix(1.000061,0,0,0.998108,0,0)"/>
<path style="fill-rule:nonzero;fill:rgb(0%,0%,0%);fill-opacity:0.956863;stroke-width:0.264583;stroke-linecap:butt;stroke-linejoin:miter;stroke:rgb(0%,0%,0%);stroke-opacity:1;stroke-miterlimit:4;" d="M 288.775329 19.873541 C 288.775329 19.873541 326.569895 43.308509 319.011763 72.790074 C 311.453631 102.275553 281.971057 195.256174 281.971057 195.256174 L 250.976857 212.644545 C 250.976857 212.644545 250.21909 249.683378 278.947804 225.493075 C 307.672612 201.302772 366.63776 179.382389 366.63776 179.382389 L 371.172639 189.964913 L 374.195892 168.040616 C 374.195892 168.040616 311.453631 191.475584 307.672612 192.986254 C 303.891593 194.500839 357.564096 65.232806 335.64356 43.308509 C 313.719118 21.388126 288.775329 19.873541 288.775329 19.873541 Z M 288.775329 19.873541 " transform="matrix(1.000061,0,0,0.998108,0,0)"/>
<path style="fill-rule:nonzero;fill:rgb(0%,0%,0%);fill-opacity:0.956863;stroke-width:0.264583;stroke-linecap:butt;stroke-linejoin:miter;stroke:rgb(0%,0%,0%);stroke-opacity:1;stroke-miterlimit:4;" d="M 399.143587 157.458092 L 421.821889 135.533795 L 437.695919 139.314386 C 437.695919 139.314386 452.058323 153.677501 452.058323 156.702757 C 452.058323 159.728012 417.28701 152.16683 417.28701 152.16683 Z M 399.143587 157.458092 " transform="matrix(1.000061,0,0,0.998108,0,0)"/>
<path style="fill-rule:nonzero;fill:rgb(0%,0%,0%);fill-opacity:0.956863;stroke-width:0.264583;stroke-linecap:butt;stroke-linejoin:miter;stroke:rgb(0%,0%,0%);stroke-opacity:1;stroke-miterlimit:4;" d="M 338.666812 224.73774 L 345.471084 237.590183 L 328.081522 293.528058 L 259.292755 261.780487 L 321.281156 298.063984 C 321.281156 298.063984 299.356714 347.959175 267.608653 357.031028 C 235.856686 366.102881 233.5912 362.32229 233.5912 362.32229 L 263.827634 368.368888 C 263.827634 368.368888 308.430378 348.714511 321.281156 329.060134 C 334.131933 309.405757 336.39742 309.405757 336.39742 309.405757 L 459.620361 402.386379 C 459.620361 402.386379 513.292864 410.702896 462.643614 378.196076 C 411.994364 345.689255 341.690065 300.333905 341.690065 300.333905 L 360.587348 257.24456 C 360.587348 257.24456 374.953658 233.809592 354.540843 227.00766 C 334.131933 220.201813 338.666812 224.73774 338.666812 224.73774 Z M 338.666812 224.73774 " transform="matrix(1.000061,0,0,0.998108,0,0)"/>
<path style="fill-rule:nonzero;fill:rgb(0%,0%,0%);fill-opacity:0.956863;stroke-width:0.264583;stroke-linecap:butt;stroke-linejoin:miter;stroke:rgb(0%,0%,0%);stroke-opacity:1;stroke-miterlimit:4;" d="M 441.476939 180.89306 C 441.476939 180.89306 449.035071 196.01151 424.087376 208.863954 C 399.143587 221.712484 377.976911 225.493075 377.976911 225.493075 L 361.345115 217.935807 C 361.345115 217.935807 376.465285 233.809592 379.488538 233.809592 C 382.51179 233.809592 430.137787 213.39988 430.137787 213.39988 L 446.011818 197.522181 Z M 441.476939 180.89306 " transform="matrix(1.000061,0,0,0.998108,0,0)"/>
</g>
</svg>
