<?xml version="1.0" encoding="UTF-8"?>
<svg xmlns="http://www.w3.org/2000/svg" xmlns:xlink="http://www.w3.org/1999/xlink" width="512pt" height="512pt" viewBox="0 0 512 512" version="1.1">
<g id="surface1">
<path style="fill-rule:nonzero;fill:rgb(0%,0%,0%);fill-opacity:0.956863;stroke-width:0.264583;stroke-linecap:butt;stroke-linejoin:miter;stroke:rgb(0%,0%,0%);stroke-opacity:1;stroke-miterlimit:4;" d="M 99.028683 63.720095 L 137.584487 50.87072 C 137.584487 50.87072 147.41086 69.01264 132.291631 75.058795 C 117.172402 81.108406 109.614396 78.840666 109.614396 78.840666 Z M 99.028683 63.720095 " transform="matrix(1.214048,0,0,1.12998,-64.987286,-26.318813)"/>
<path style="fill-rule:nonzero;fill:rgb(0%,0%,0%);fill-opacity:0.956863;stroke-width:0.264583;stroke-linecap:butt;stroke-linejoin:miter;stroke:rgb(0%,0%,0%);stroke-opacity:1;stroke-miterlimit:4;" d="M 58.963852 76.572926 L 83.153332 78.840666 L 99.028683 103.028741 C 99.028683 103.028741 92.982922 124.195467 94.495167 128.730948 C 96.007412 133.266428 99.784806 162.750505 99.784806 177.114011 C 99.784806 191.477517 97.516439 202.059152 97.516439 202.059152 L 129.267142 191.477517 C 129.267142 191.477517 140.605759 199.034346 139.849637 202.816218 C 139.096732 206.594632 112.635668 215.665592 112.635668 215.665592 L 106.589907 220.958138 L 98.272561 228.518424 L 86.933944 209.619438 C 86.933944 209.619438 89.202311 197.523672 89.202311 194.498866 C 89.202311 191.477517 88.446188 159.7257 88.446188 159.7257 L 87.690066 115.881573 L 77.863693 92.447107 Z M 58.963852 76.572926 " transform="matrix(1.214048,0,0,1.12998,-64.987286,-26.318813)"/>
<path style="fill-rule:nonzero;fill:rgb(0%,0%,0%);fill-opacity:0.956863;stroke-width:0.264583;stroke-linecap:butt;stroke-linejoin:miter;stroke:rgb(0%,0%,0%);stroke-opacity:1;stroke-miterlimit:4;" d="M 112.635668 110.589027 L 136.072243 117.392247 L 143.630249 128.730948 L 128.511019 137.048299 L 109.614396 124.952533 Z M 112.635668 110.589027 " transform="matrix(1.214048,0,0,1.12998,-64.987286,-26.318813)"/>
<path style="fill-rule:nonzero;fill:rgb(0%,0%,0%);fill-opacity:0.956863;stroke-width:0.264583;stroke-linecap:butt;stroke-linejoin:miter;stroke:rgb(0%,0%,0%);stroke-opacity:1;stroke-miterlimit:4;" d="M 196.549159 39.528563 L 207.131654 53.13846 L 260.047348 48.599523 L 282.724582 75.058795 L 269.87372 91.690041 L 263.071837 102.275133 L 244.171996 157.45796 L 238.126235 193.745258 L 245.684241 205.083958 L 241.147507 214.154918 L 226.028278 200.548478 L 259.291225 62.963029 L 208.643899 69.01264 L 192.012425 49.356589 Z M 196.549159 39.528563 " transform="matrix(1.214048,0,0,1.12998,-64.987286,-26.318813)"/>
<path style="fill-rule:nonzero;fill:rgb(0%,0%,0%);fill-opacity:0.956863;stroke-width:0.264583;stroke-linecap:butt;stroke-linejoin:miter;stroke:rgb(0%,0%,0%);stroke-opacity:1;stroke-miterlimit:4;" d="M 189.744058 118.906379 L 216.958027 106.810613 L 228.296645 114.367442 L 197.302064 134.023493 L 188.987936 113.613833 Z M 189.744058 118.906379 " transform="matrix(1.214048,0,0,1.12998,-64.987286,-26.318813)"/>
<path style="fill-rule:nonzero;fill:rgb(0%,0%,0%);fill-opacity:0.956863;stroke-width:0.264583;stroke-linecap:butt;stroke-linejoin:miter;stroke:rgb(0%,0%,0%);stroke-opacity:1;stroke-miterlimit:4;" d="M 188.987936 184.674297 C 188.987936 184.674297 216.958027 175.59988 219.982517 180.13536 C 223.007006 184.674297 203.351043 208.108764 198.814309 202.059152 C 194.280792 196.012998 188.987936 184.674297 188.987936 184.674297 Z M 188.987936 184.674297 " transform="matrix(1.214048,0,0,1.12998,-64.987286,-26.318813)"/>
<path style="fill-rule:nonzero;fill:rgb(0%,0%,0%);fill-opacity:0.956863;stroke-width:0.264583;stroke-linecap:butt;stroke-linejoin:miter;stroke:rgb(0%,0%,0%);stroke-opacity:1;stroke-miterlimit:4;" d="M 148.923105 213.397852 C 148.923105 213.397852 192.768548 224.736553 184.451202 248.928085 C 176.137074 273.119617 178.405441 268.584136 178.405441 268.584136 L 204.107165 256.48837 C 204.107165 256.48837 247.196485 257.245436 212.421293 271.605485 C 177.649318 285.968991 176.137074 289.750863 176.137074 289.750863 L 165.554579 341.155275 C 165.554579 341.155275 202.59492 337.373404 210.156144 341.912341 C 217.71415 346.447821 229.808889 362.322001 198.814309 358.54013 C 167.822946 354.761716 122.465258 370.635896 122.465258 370.635896 L 87.690066 397.852234 C 87.690066 397.852234 81.644305 403.898388 63.500586 386.513533 C 45.356868 369.125222 70.30247 375.928442 70.30247 375.928442 L 144.386371 345.690755 L 151.191472 297.311148 L 115.660157 319.988549 L 99.028683 295.797017 C 99.028683 295.797017 86.933944 275.387357 92.982922 273.876682 C 99.028683 272.362551 116.41628 283.701251 116.41628 283.701251 L 150.43535 270.094811 L 155.724988 244.392605 C 155.724988 244.392605 151.947594 230.029098 144.386371 226.250684 C 136.828365 222.468813 148.923105 213.397852 148.923105 213.397852 Z M 148.923105 213.397852 " transform="matrix(1.214048,0,0,1.12998,-64.987286,-26.318813)"/>
<path style="fill-rule:nonzero;fill:rgb(0%,0%,0%);fill-opacity:0.956863;stroke-width:0.264583;stroke-linecap:butt;stroke-linejoin:miter;stroke:rgb(0%,0%,0%);stroke-opacity:1;stroke-miterlimit:4;" d="M 293.310295 25.922122 C 293.310295 25.922122 347.738233 53.13846 326.570025 97.739652 C 305.405035 142.340845 292.554173 156.700894 292.554173 156.700894 L 275.922699 154.433154 L 297.843812 141.583779 C 297.843812 141.583779 338.667983 70.523315 293.310295 25.922122 Z M 293.310295 25.922122 " transform="matrix(1.214048,0,0,1.12998,-64.987286,-26.318813)"/>
<path style="fill-rule:nonzero;fill:rgb(0%,0%,0%);fill-opacity:0.956863;stroke-width:0.264583;stroke-linecap:butt;stroke-linejoin:miter;stroke:rgb(0%,0%,0%);stroke-opacity:1;stroke-miterlimit:4;" d="M 344.713744 75.058795 C 344.713744 75.058795 392.339798 75.058795 395.364287 54.649134 C 398.385559 34.239474 409.727394 69.01264 409.727394 69.01264 C 409.727394 69.01264 432.404629 88.665235 410.483517 95.471912 C 388.559186 102.275133 383.26633 107.564221 383.26633 107.564221 L 356.808483 203.569826 L 345.469866 207.351698 L 318.255897 171.0644 L 350.0066 179.381751 L 367.394196 100.761001 C 367.394196 100.761001 346.225988 81.108406 344.713744 75.058795 Z M 344.713744 75.058795 " transform="matrix(1.214048,0,0,1.12998,-64.987286,-26.318813)"/>
<path style="fill-rule:nonzero;fill:rgb(0%,0%,0%);fill-opacity:0.956863;stroke-width:0.264583;stroke-linecap:butt;stroke-linejoin:miter;stroke:rgb(0%,0%,0%);stroke-opacity:1;stroke-miterlimit:4;" d="M 275.922699 154.433154 L 318.255897 171.0644 C 318.255897 171.0644 290.285806 257.999045 278.947188 257.999045 C 267.608571 257.999045 405.19066 218.690398 408.971272 218.690398 C 412.748666 218.690398 424.090501 199.034346 435.429118 216.422658 C 446.767736 233.81097 403.678416 231.54323 400.653926 233.053904 C 397.629437 234.564579 269.117598 273.876682 269.117598 273.876682 C 269.117598 273.876682 225.275373 301.846629 231.321134 284.458317 C 237.370113 267.070005 243.415874 273.876682 243.415874 273.876682 L 263.827959 253.463565 C 263.827959 253.463565 317.499775 166.52892 275.922699 154.433154 Z M 275.922699 154.433154 " transform="matrix(1.214048,0,0,1.12998,-64.987286,-26.318813)"/>
<path style="fill-rule:nonzero;fill:rgb(0%,0%,0%);fill-opacity:0.956863;stroke-width:0.264583;stroke-linecap:butt;stroke-linejoin:miter;stroke:rgb(0%,0%,0%);stroke-opacity:1;stroke-miterlimit:4;" d="M 317.499775 267.827071 L 355.296239 290.504471 L 348.494355 296.554083 L 320.524264 354.00465 L 452.060592 431.868335 C 452.060592 431.868335 489.100934 499.150385 427.111773 450.010255 C 365.125829 400.873582 304.648913 361.564936 304.648913 361.564936 C 304.648913 361.564936 244.171996 450.010255 191.256303 428.843529 C 138.34061 407.68026 170.844217 412.21574 170.844217 412.21574 C 170.844217 412.21574 256.266736 409.190934 276.678821 379.706856 C 297.087689 350.226236 293.310295 349.46917 290.285806 349.46917 C 287.261316 349.46917 219.226394 310.160523 219.226394 310.160523 L 296.334784 338.13047 C 296.334784 338.13047 335.643493 293.529277 322.036509 282.190577 C 308.429524 270.851876 317.499775 267.827071 317.499775 267.827071 Z M 317.499775 267.827071 " transform="matrix(1.214048,0,0,1.12998,-64.987286,-26.318813)"/>
</g>
</svg>
