<?xml version="1.0" encoding="UTF-8"?>
<svg xmlns="http://www.w3.org/2000/svg" xmlns:xlink="http://www.w3.org/1999/xlink" width="512pt" height="511pt" viewBox="0 0 512 511" version="1.1">
<g id="surface1">
<path style="fill-rule:nonzero;fill:rgb(0%,0%,0%);fill-opacity:0.956863;stroke-width:0.264583;stroke-linecap:butt;stroke-linejoin:miter;stroke:rgb(0%,0%,0%);stroke-opacity:1;stroke-miterlimit:4;" d="M 142.120225 83.376512 C 142.120225 83.376512 147.408964 110.588157 153.459376 111.343492 C 159.505882 112.102741 177.649304 121.92993 177.649304 121.92993 L 184.453576 161.994018 L 229.810181 149.141575 L 232.833434 123.4406 C 232.833434 123.4406 210.155131 105.296895 195.034961 108.32215 C 179.914791 111.343492 170.845033 81.106592 170.845033 81.106592 L 198.058214 85.642518 C 198.058214 85.642518 256.269502 73.549323 260.804381 74.304659 C 265.33926 75.059994 294.064068 62.20755 297.845087 65.232806 C 301.626106 68.254148 338.666812 52.380362 350.76373 78.08525 C 362.856741 103.786224 339.420673 113.613412 339.420673 113.613412 L 320.523389 106.811479 L 334.131933 80.351256 C 334.131933 80.351256 325.058269 67.498812 300.11448 78.08525 C 275.166785 88.667774 247.195837 96.980377 247.195837 96.980377 C 247.195837 96.980377 261.558241 121.17068 258.534989 131.001782 C 255.511736 140.828971 265.33926 143.094977 265.33926 143.094977 C 265.33926 143.094977 304.649359 148.386239 280.459431 158.213427 C 256.269502 168.040616 257.023362 177.112469 257.023362 177.112469 L 257.023362 205.083363 L 273.655159 203.572692 L 291.798582 178.62314 L 303.891593 180.137724 C 303.891593 180.137724 315.230744 136.293044 319.769529 120.415345 C 324.304409 104.541559 322.035016 106.05223 322.035016 106.05223 L 335.64356 117.394003 L 311.453631 186.939657 C 311.453631 186.939657 332.620307 199.792101 309.184238 211.12996 C 285.74817 222.471733 259.292755 232.298922 259.292755 232.298922 C 259.292755 232.298922 232.833434 260.269816 225.275301 265.561078 C 217.713263 270.852339 116.414764 340.397993 116.414764 340.397993 C 116.414764 340.397993 89.959349 346.444591 102.810126 324.524208 C 115.660904 302.599911 119.441923 318.47761 119.441923 318.47761 L 250.976857 233.809592 L 168.57564 251.197963 C 168.57564 251.197963 139.096972 265.561078 138.339206 241.370774 C 137.58144 217.180471 143.631851 218.691142 143.631851 218.691142 L 167.064014 230.784337 L 241.149332 216.421222 C 241.149332 216.421222 229.810181 195.256174 237.368313 186.939657 C 244.930351 178.62314 188.988456 174.846462 188.988456 174.846462 L 196.546588 202.817356 L 184.453576 215.665887 L 179.160931 200.547436 L 139.096972 106.811479 Z M 142.120225 83.376512 " transform="matrix(1.000061,0,0,0.998108,0,0)"/>
<path style="fill-rule:nonzero;fill:rgb(0%,0%,0%);fill-opacity:0.956863;stroke-width:0.264583;stroke-linecap:butt;stroke-linejoin:miter;stroke:rgb(0%,0%,0%);stroke-opacity:1;stroke-miterlimit:4;" d="M 239.637705 297.308649 C 241.903192 292.772723 249.46523 267.827084 249.46523 267.827084 L 271.385766 270.852339 L 283.482683 292.017387 C 283.482683 292.017387 346.224945 287.481461 349.248197 288.992132 C 352.275356 290.506716 387.04667 287.481461 354.540843 344.178584 C 322.035016 400.875708 294.821834 443.965052 294.821834 443.965052 C 294.821834 443.965052 275.166785 474.201953 253.242343 471.935947 C 231.321807 469.666027 227.540788 448.500979 227.540788 448.500979 L 207.131879 409.947561 L 259.292755 439.429126 C 259.292755 439.429126 293.310208 422.796091 329.597054 364.588297 C 365.879994 306.380502 372.684266 288.992132 323.546642 295.797978 C 274.409019 302.599911 239.637705 350.225182 239.637705 350.225182 C 239.637705 350.225182 176.137678 402.386379 173.114425 405.411635 C 170.091172 408.432976 142.120225 426.576682 135.315953 427.332018 C 128.511681 428.087353 99.786873 430.357273 99.786873 430.357273 C 99.786873 430.357273 193.523335 366.102881 219.982656 338.887322 C 246.441977 311.671764 245.684211 307.135837 245.684211 307.135837 C 245.684211 307.135837 200.327607 298.823234 220.736516 298.063984 C 241.149332 297.308649 239.637705 297.308649 239.637705 297.308649 Z M 239.637705 297.308649 " transform="matrix(1.000061,0,0,0.998108,0,0)"/>
</g>
</svg>
