<?xml version="1.0" encoding="UTF-8"?>
<svg xmlns="http://www.w3.org/2000/svg" xmlns:xlink="http://www.w3.org/1999/xlink" width="512pt" height="512pt" viewBox="0 0 512 512" version="1.1">
<g id="surface1">
<path style="fill-rule:nonzero;fill:rgb(0%,0%,0%);fill-opacity:0.956863;stroke-width:0.264583;stroke-linecap:butt;stroke-linejoin:miter;stroke:rgb(0%,0%,0%);stroke-opacity:1;stroke-miterlimit:4;" d="M 126.245488 51.626083 L 146.655616 50.11291 L 158.750724 41.042555 C 158.750724 41.042555 188.988494 81.863492 172.358455 111.345762 C 155.725478 140.828031 139.850281 154.43501 139.850281 154.43501 L 108.857668 167.28685 C 108.857668 167.28685 159.505567 118.905837 160.263347 99.249062 C 161.018189 79.59518 162.530812 55.404674 145.142993 65.988201 C 127.755173 76.571728 126.245488 51.626083 126.245488 51.626083 Z M 126.245488 51.626083 " transform="matrix(1.329954,0,0,1.350123,-120.91241,-88.740619)"/>
<path style="fill-rule:nonzero;fill:rgb(0%,0%,0%);fill-opacity:0.956863;stroke-width:0.264583;stroke-linecap:butt;stroke-linejoin:miter;stroke:rgb(0%,0%,0%);stroke-opacity:1;stroke-miterlimit:4;" d="M 188.988494 112.856041 L 206.376314 115.124353 L 269.874163 95.470471 C 269.874163 95.470471 284.994517 99.249062 250.976658 118.905837 C 216.958799 138.559719 204.863691 165.773677 193.523425 137.046547 C 182.18316 108.32231 188.988494 112.856041 188.988494 112.856041 Z M 188.988494 112.856041 " transform="matrix(1.329954,0,0,1.350123,-120.91241,-88.740619)"/>
<path style="fill-rule:nonzero;fill:rgb(0%,0%,0%);fill-opacity:0.956863;stroke-width:0.264583;stroke-linecap:butt;stroke-linejoin:miter;stroke:rgb(0%,0%,0%);stroke-opacity:1;stroke-miterlimit:4;" d="M 157.238101 202.816023 C 157.238101 202.816023 166.310901 169.552268 178.406009 180.893828 C 190.501117 192.232495 200.328759 202.816023 200.328759 202.816023 C 200.328759 202.816023 204.105911 206.594614 205.618534 211.131238 C 207.131156 215.667862 198.816137 241.368647 198.816137 241.368647 L 252.489281 224.738217 C 252.489281 224.738217 261.559143 202.060883 284.236737 220.959625 C 306.917267 239.858368 291.042071 243.636959 291.042071 243.636959 L 252.489281 235.321744 L 191.25596 257.999078 C 191.25596 257.999078 159.505567 389.535135 133.047885 416.749093 C 106.590203 443.963051 84.667452 469.666729 84.667452 469.666729 C 84.667452 469.666729 67.279632 481.760536 44.602039 468.91159 C 21.921508 456.05975 48.382127 461.351514 48.382127 461.351514 L 74.082029 454.546578 C 74.082029 454.546578 123.220242 401.631835 136.827973 372.149565 C 150.435704 342.667296 173.86814 278.410992 173.86814 278.410992 C 173.86814 278.410992 167.065743 257.999078 143.63037 276.89782 C 120.194996 295.796562 98.275183 323.768553 98.275183 323.768553 C 98.275183 323.768553 77.107275 346.445887 63.499544 326.792005 C 49.891813 307.138123 59.719456 279.921272 59.719456 279.921272 C 59.719456 279.921272 53.671901 301.088326 111.879977 274.632401 C 170.088052 248.173583 174.62592 242.881819 174.62592 242.881819 C 174.62592 242.881819 181.428317 229.274841 170.088052 215.667862 C 158.750724 202.060883 157.238101 202.816023 157.238101 202.816023 Z M 157.238101 202.816023 " transform="matrix(1.329954,0,0,1.350123,-120.91241,-88.740619)"/>
<path style="fill-rule:nonzero;fill:rgb(0%,0%,0%);fill-opacity:0.956863;stroke-width:0.264583;stroke-linecap:butt;stroke-linejoin:miter;stroke:rgb(0%,0%,0%);stroke-opacity:1;stroke-miterlimit:4;" d="M 199.57098 297.309735 C 213.178711 303.356638 219.981107 302.601499 219.981107 302.601499 C 219.981107 302.601499 257.024212 339.643844 260.8043 344.935608 C 264.584389 350.227371 275.166874 374.417877 271.386786 385.756544 C 267.606697 397.095211 238.88155 366.857802 238.88155 366.857802 Z M 199.57098 297.309735 " transform="matrix(1.329954,0,0,1.350123,-120.91241,-88.740619)"/>
<path style="fill-rule:nonzero;fill:rgb(0%,0%,0%);fill-opacity:0.956863;stroke-width:0.264583;stroke-linecap:butt;stroke-linejoin:miter;stroke:rgb(0%,0%,0%);stroke-opacity:1;stroke-miterlimit:4;" d="M 290.284291 149.898386 L 343.957435 170.310301 L 448.278477 140.828031 L 461.131365 112.100901 C 461.131365 112.100901 482.296336 116.637525 488.34389 136.291407 C 494.391444 155.945289 489.10167 165.773677 489.10167 165.773677 L 478.519185 174.844032 L 456.596434 292.773111 C 456.596434 292.773111 487.589047 321.500241 459.618742 315.453338 C 431.648438 309.403541 386.290313 319.231929 386.290313 319.231929 L 385.535471 298.820014 C 385.535471 298.820014 432.406218 285.971068 432.406218 282.947616 C 432.406218 279.921272 438.453772 185.427559 438.453772 185.427559 C 438.453772 185.427559 447.523634 160.481914 413.505775 175.602065 C 379.487916 190.719323 368.147651 190.719323 366.637965 193.742774 C 365.125343 196.769119 350.004989 184.67242 350.762769 230.78512 C 351.517612 276.89782 357.565166 296.554595 357.565166 296.554595 C 357.565166 296.554595 359.832631 313.185026 372.68552 306.38009 C 385.535471 299.578047 387.802936 298.064875 387.802936 298.064875 L 384.022848 321.500241 L 367.392808 335.862359 C 367.392808 335.862359 352.272455 370.636393 346.2249 330.570596 C 340.177346 290.504799 320.524998 202.816023 320.524998 202.816023 C 320.524998 202.816023 294.064379 174.844032 293.309536 165.018538 C 292.554694 155.19015 290.284291 149.898386 290.284291 149.898386 Z M 290.284291 149.898386 " transform="matrix(1.329954,0,0,1.350123,-120.91241,-88.740619)"/>
</g>
</svg>
