<?xml version="1.0" encoding="UTF-8"?>
<svg xmlns="http://www.w3.org/2000/svg" xmlns:xlink="http://www.w3.org/1999/xlink" width="512pt" height="511pt" viewBox="0 0 512 511" version="1.1">
<g id="surface1">
<path style="fill-rule:nonzero;fill:rgb(0%,0%,0%);fill-opacity:0.956863;stroke-width:0.264583;stroke-linecap:butt;stroke-linejoin:miter;stroke:rgb(0%,0%,0%);stroke-opacity:1;stroke-miterlimit:4;" d="M 187.476829 24.409468 L 203.35086 21.388126 C 203.35086 21.388126 235.102826 47.844436 228.298554 66.743477 C 221.494282 85.642518 226.029162 86.397853 226.029162 86.397853 L 251.730717 78.08525 C 251.730717 78.08525 286.505936 86.397853 252.488483 93.959035 C 218.47103 101.516304 216.201637 102.275553 216.201637 102.275553 L 208.643505 174.091127 L 211.666758 210.374625 C 211.666758 210.374625 274.409019 179.382389 219.22489 217.180471 C 164.040761 254.97464 158.748115 259.510567 158.748115 259.510567 C 158.748115 259.510567 159.505882 274.629017 136.827579 259.510567 C 114.149277 244.392116 114.903137 244.392116 114.903137 244.392116 C 114.903137 244.392116 123.219036 251.197963 131.534934 248.172707 C 139.850832 245.147452 192.769475 220.201813 192.769475 220.201813 L 173.114425 197.522181 L 184.453576 202.058107 C 184.453576 202.058107 215.447777 172.576542 198.058214 172.576542 C 180.672557 172.576542 142.874085 162.749354 142.874085 162.749354 L 188.230689 151.411495 C 188.230689 151.411495 199.56984 163.504689 204.108626 134.023124 C 208.643505 104.541559 208.643505 104.541559 208.643505 104.541559 L 172.356659 117.394003 C 172.356659 117.394003 157.236489 131.757118 143.631851 112.858077 C 130.023307 93.959035 140.608598 99.250297 140.608598 99.250297 C 140.608598 99.250297 141.362459 101.516304 149.678357 101.516304 C 157.994255 101.516304 207.131879 84.887183 207.131879 84.887183 C 207.131879 84.887183 216.959403 48.599771 189.742316 24.409468 C 162.529134 0.219165 187.476829 24.409468 187.476829 24.409468 Z M 187.476829 24.409468 " transform="matrix(1.000061,0,0,0.998108,0,0)"/>
<path style="fill-rule:nonzero;fill:rgb(0%,0%,0%);fill-opacity:0.956863;stroke-width:0.264583;stroke-linecap:butt;stroke-linejoin:miter;stroke:rgb(0%,0%,0%);stroke-opacity:1;stroke-miterlimit:4;" d="M 254.000109 108.32215 L 265.33926 112.858077 L 332.620307 101.516304 L 360.587348 98.494962 C 360.587348 98.494962 380.242398 90.178444 391.581549 99.250297 C 402.9207 108.32215 401.409074 115.879419 401.409074 115.879419 L 380.242398 145.364897 L 358.321862 187.694993 L 353.786983 214.910551 L 346.982711 246.662036 C 346.982711 246.662036 328.081522 241.370774 325.816035 232.298922 C 323.546642 223.227069 336.39742 223.227069 336.39742 223.227069 L 346.982711 214.155216 L 344.713318 197.522181 L 377.219145 122.685265 C 377.219145 122.685265 396.120334 93.959035 338.666812 109.077486 C 281.213291 124.195936 275.166785 139.314386 275.166785 139.314386 C 275.166785 139.314386 247.195837 120.415345 254.000109 108.32215 Z M 254.000109 108.32215 " transform="matrix(1.000061,0,0,0.998108,0,0)"/>
<path style="fill-rule:nonzero;fill:rgb(0%,0%,0%);fill-opacity:0.956863;stroke-width:0.264583;stroke-linecap:butt;stroke-linejoin:miter;stroke:rgb(0%,0%,0%);stroke-opacity:1;stroke-miterlimit:4;" d="M 291.040815 146.875568 C 294.064068 146.875568 306.160986 146.875568 306.160986 146.875568 C 306.160986 146.875568 327.327661 143.850313 311.453631 169.5552 C 295.575695 195.256174 298.602854 196.766845 298.602854 196.766845 C 298.602854 196.766845 334.885793 217.935807 306.160986 213.39988 C 277.436178 208.863954 275.924551 213.39988 275.924551 213.39988 C 275.924551 213.39988 263.827634 236.075599 245.684211 238.345519 C 227.540788 240.611525 229.052415 240.611525 229.052415 240.611525 L 269.120279 206.594034 L 247.195837 185.428986 L 282.724917 192.230919 C 282.724917 192.230919 306.914846 154.432836 291.040815 146.875568 Z M 291.040815 146.875568 " transform="matrix(1.000061,0,0,0.998108,0,0)"/>
<path style="fill-rule:nonzero;fill:rgb(0%,0%,0%);fill-opacity:0.956863;stroke-width:0.264583;stroke-linecap:butt;stroke-linejoin:miter;stroke:rgb(0%,0%,0%);stroke-opacity:1;stroke-miterlimit:4;" d="M 210.155131 248.172707 L 198.81598 266.316413 L 159.505882 292.772723 L 140.608598 294.287307 C 140.608598 294.287307 129.269447 321.498952 169.333406 315.452355 C 209.397365 309.405757 214.690011 310.916428 214.690011 310.916428 C 214.690011 310.916428 169.333406 345.689255 151.947749 346.444591 C 134.558187 347.20384 136.827579 352.495102 136.827579 352.495102 L 154.213236 366.858217 L 203.35086 356.275693 L 223.763675 366.102881 L 222.248143 413.728152 C 222.248143 413.728152 225.275301 434.8932 202.596999 426.576682 C 179.914791 418.260165 206.374112 445.475723 206.374112 445.475723 L 211.666758 462.108758 C 211.666758 462.108758 229.810181 472.691282 232.075667 453.036905 C 234.34506 433.382529 229.810181 397.095117 236.614453 385.001922 C 243.414818 372.904814 243.414818 367.613552 243.414818 367.613552 L 230.564041 351.739766 L 263.069868 339.642658 L 260.804381 337.376652 L 183.69581 341.912578 L 272.143532 280.679528 C 272.143532 280.679528 304.649359 263.291157 292.552442 253.463969 C 280.459431 243.636781 265.33926 250.438714 265.33926 250.438714 L 272.897392 256.489225 L 236.614453 294.287307 L 217.713263 307.891173 L 165.552387 295.797978 L 216.201637 262.535822 L 229.052415 257.999896 Z M 210.155131 248.172707 " transform="matrix(1.000061,0,0,0.998108,0,0)"/>
<path style="fill-rule:nonzero;fill:rgb(0%,0%,0%);fill-opacity:0.956863;stroke-width:0.264583;stroke-linecap:butt;stroke-linejoin:miter;stroke:rgb(0%,0%,0%);stroke-opacity:1;stroke-miterlimit:4;" d="M 253.242343 310.161093 C 253.242343 310.161093 306.160986 335.106731 300.86834 344.178584 C 295.575695 353.250437 282.724917 346.444591 282.724917 346.444591 C 282.724917 346.444591 239.637705 313.941684 253.242343 310.161093 Z M 253.242343 310.161093 " transform="matrix(1.000061,0,0,0.998108,0,0)"/>
<path style="fill-rule:nonzero;fill:rgb(0%,0%,0%);fill-opacity:0.956863;stroke-width:0.264583;stroke-linecap:butt;stroke-linejoin:miter;stroke:rgb(0%,0%,0%);stroke-opacity:1;stroke-miterlimit:4;" d="M 306.160986 384.242673 C 306.160986 384.242673 359.833488 401.631044 363.614507 423.55534 C 367.39162 445.475723 354.540843 437.159206 354.540843 437.159206 L 319.011763 422.040756 Z M 306.160986 384.242673 " transform="matrix(1.000061,0,0,0.998108,0,0)"/>
<path style="fill-rule:nonzero;fill:rgb(0%,0%,0%);fill-opacity:0.956863;stroke-width:0.264583;stroke-linecap:butt;stroke-linejoin:miter;stroke:rgb(0%,0%,0%);stroke-opacity:1;stroke-miterlimit:4;" d="M 102.810126 393.314526 L 99.029107 424.310676 C 99.029107 424.310676 113.391511 445.475723 122.465175 435.648535 C 131.534934 425.821347 102.810126 393.314526 102.810126 393.314526 Z M 102.810126 393.314526 " transform="matrix(1.000061,0,0,0.998108,0,0)"/>
</g>
</svg>
