<?xml version="1.0" encoding="UTF-8"?>
<svg xmlns="http://www.w3.org/2000/svg" xmlns:xlink="http://www.w3.org/1999/xlink" width="512pt" height="511pt" viewBox="0 0 512 511" version="1.1">
<g id="surface1">
<path style="fill-rule:nonzero;fill:rgb(0%,0%,0%);fill-opacity:0.956863;stroke-width:0.264583;stroke-linecap:butt;stroke-linejoin:miter;stroke:rgb(0%,0%,0%);stroke-opacity:1;stroke-miterlimit:4;" d="M 173.868285 41.797838 C 173.868285 41.797838 178.403165 34.236656 198.81598 41.042503 C 219.22489 47.844436 235.102826 37.261912 235.102826 37.261912 L 254.757876 48.599771 C 254.757876 48.599771 269.120279 46.333765 263.827634 80.351256 C 258.534989 114.368748 253.242343 102.275553 253.242343 102.275553 L 254.000109 115.124083 L 285.74817 107.566815 C 285.74817 107.566815 296.333461 82.617262 304.649359 88.667774 C 312.965257 94.714371 334.131933 108.32215 334.131933 108.32215 C 334.131933 108.32215 342.447831 118.904674 332.620307 128.731862 C 322.792782 138.559051 319.769529 200.547436 319.769529 200.547436 L 309.184238 254.219305 C 309.184238 254.219305 343.959458 267.071748 299.356714 270.097004 C 254.757876 273.118346 173.868285 293.528058 173.868285 293.528058 L 177.649304 280.679528 L 293.310208 255.733889 L 291.798582 120.415345 L 176.137678 155.192086 L 176.891538 208.108618 L 234.34506 189.964913 C 234.34506 189.964913 311.453631 175.601798 244.172585 202.058107 C 176.891538 228.518331 178.403165 226.24841 178.403165 226.24841 L 173.114425 273.118346 L 176.891538 281.434863 L 174.626052 298.823234 L 171.602799 357.031028 L 263.069868 304.869831 C 263.069868 304.869831 280.459431 269.337755 290.286955 276.143601 C 300.11448 282.945534 297.087321 288.992132 297.087321 288.992132 L 272.143532 306.380502 L 363.614507 378.951411 L 394.608708 401.631044 L 469.447886 435.648535 L 492.126188 443.209717 L 436.184293 453.792241 C 436.184293 453.792241 430.891648 493.85633 377.976911 437.918455 C 325.058269 381.976667 292.552442 336.617402 292.552442 336.617402 C 292.552442 336.617402 272.897392 308.650422 247.195837 323.013537 C 221.494282 337.376652 173.868285 366.102881 173.868285 366.102881 L 170.845033 463.619429 L 180.672557 461.349509 C 180.672557 461.349509 238.126079 441.695132 258.534989 414.483487 C 278.947804 387.267929 276.678412 395.584446 276.678412 395.584446 L 257.781128 422.040756 L 235.856686 450.01165 L 182.184184 483.273806 L 146.655104 502.172847 C 146.655104 502.172847 117.17253 508.219445 125.488428 481.0078 C 133.804327 453.792241 139.850832 465.885436 139.850832 465.885436 L 144.385711 476.471873 L 167.82178 469.666027 L 161.017508 370.638808 L 123.976802 386.512593 L 120.195783 384.242673 L 125.488428 381.221331 L 139.096972 376.685405 L 158.748115 362.32229 L 163.286901 169.5552 L 141.362459 138.559051 L 145.897338 109.832821 L 167.064014 140.069722 L 229.810181 125.706607 C 229.810181 125.706607 251.730717 108.32215 247.195837 88.667774 C 242.660958 69.013397 242.660958 45.578429 216.201637 54.650282 C 189.742316 63.722135 179.914791 76.570665 173.868285 41.797838 Z M 173.868285 41.797838 " transform="matrix(1.000061,0,0,0.998108,0,0)"/>
</g>
</svg>
