<?xml version="1.0" encoding="UTF-8"?>
<svg xmlns="http://www.w3.org/2000/svg" xmlns:xlink="http://www.w3.org/1999/xlink" width="512pt" height="511pt" viewBox="0 0 512 511" version="1.1">
<g id="surface1">
<path style="fill-rule:nonzero;fill:rgb(0%,0%,0%);fill-opacity:0.956863;stroke-width:0.264583;stroke-linecap:butt;stroke-linejoin:miter;stroke:rgb(0%,0%,0%);stroke-opacity:1;stroke-miterlimit:4;" d="M 227.540788 31.97065 C 227.540788 31.97065 230.564041 43.308509 245.684211 52.380362 C 260.804381 61.452215 263.827634 66.743477 263.827634 66.743477 C 263.827634 66.743477 254.757876 77.326001 257.023362 80.351256 C 259.292755 83.376512 264.581494 121.92993 259.292755 137.04838 C 254.000109 152.16683 260.804381 151.411495 260.804381 151.411495 C 260.804381 151.411495 319.011763 137.04838 341.690065 153.677501 C 364.368367 170.310536 368.149386 177.112469 368.149386 177.112469 L 359.833488 199.036765 C 359.833488 199.036765 358.321862 239.100854 353.786983 261.780487 C 349.248197 284.460119 353.029216 307.891173 353.029216 307.891173 L 359.833488 365.343632 L 342.447831 415.994158 C 342.447831 415.994158 367.39162 424.310676 365.879994 435.648535 C 364.368367 446.986394 354.540843 442.450468 354.540843 442.450468 C 354.540843 442.450468 352.275356 437.159206 349.248197 437.159206 C 346.224945 437.159206 337.909046 438.673791 337.909046 438.673791 L 335.64356 446.231059 L 294.064068 402.386379 C 294.064068 402.386379 270.631906 376.685405 298.602854 387.267929 C 326.569895 397.850453 331.862541 396.339782 331.862541 396.339782 L 334.885793 376.685405 L 319.769529 350.980517 C 319.769529 350.980517 178.403165 359.297035 145.897338 378.951411 C 113.391511 398.605788 103.563986 379.706747 103.563986 379.706747 C 103.563986 379.706747 97.517481 369.124223 125.488428 361.566955 C 153.459376 354.005773 159.505882 347.959175 159.505882 347.959175 L 137.58144 271.607675 C 137.58144 271.607675 141.362459 262.535822 155.724863 245.147452 C 170.091172 227.762995 167.82178 221.712484 167.82178 221.712484 C 167.82178 221.712484 141.362459 197.522181 145.897338 174.091127 C 150.436123 150.656159 152.70161 158.968763 152.70161 158.968763 L 177.649304 191.475584 C 177.649304 191.475584 187.476829 197.522181 181.430324 260.269816 C 175.379912 323.013537 179.160931 345.689255 179.160931 345.689255 L 285.74817 338.887322 C 285.74817 338.887322 307.672612 332.840725 322.035016 337.376652 C 336.39742 341.912578 334.885793 330.570805 334.885793 330.570805 L 337.155186 311.671764 L 334.885793 176.357133 C 334.885793 176.357133 345.471084 149.141575 286.505936 160.483348 C 227.540788 171.821207 217.713263 182.403731 217.713263 182.403731 C 217.713263 182.403731 200.327607 196.766845 190.500082 179.382389 C 180.672557 161.994018 182.184184 160.483348 182.184184 160.483348 L 245.684211 150.656159 L 230.564041 72.034739 C 230.564041 72.034739 215.447777 60.696879 215.447777 48.599771 C 215.447777 36.506576 227.540788 31.97065 227.540788 31.97065 Z M 227.540788 31.97065 " transform="matrix(1.000061,0,0,0.998108,0,0)"/>
<path style="fill-rule:nonzero;fill:rgb(0%,0%,0%);fill-opacity:0.956863;stroke-width:0.264583;stroke-linecap:butt;stroke-linejoin:miter;stroke:rgb(0%,0%,0%);stroke-opacity:1;stroke-miterlimit:4;" d="M 201.081467 219.446478 L 216.959403 219.446478 L 265.33926 210.374625 L 272.897392 221.712484 L 204.862486 246.662036 L 195.034961 236.075599 Z M 201.081467 219.446478 " transform="matrix(1.000061,0,0,0.998108,0,0)"/>
<path style="fill-rule:nonzero;fill:rgb(0%,0%,0%);fill-opacity:0.956863;stroke-width:0.264583;stroke-linecap:butt;stroke-linejoin:miter;stroke:rgb(0%,0%,0%);stroke-opacity:1;stroke-miterlimit:4;" d="M 183.69581 287.481461 C 186.719063 287.481461 205.620252 282.190199 210.908992 282.190199 C 216.201637 282.190199 263.069868 264.046493 263.069868 264.046493 L 274.409019 270.097004 C 274.409019 270.097004 275.166785 281.434863 272.143532 282.945534 C 269.120279 284.460119 207.131879 307.891173 207.131879 307.891173 L 176.891538 295.042643 Z M 183.69581 287.481461 " transform="matrix(1.000061,0,0,0.998108,0,0)"/>
<path style="fill-rule:nonzero;fill:rgb(0%,0%,0%);fill-opacity:0.956863;stroke-width:0.264583;stroke-linecap:butt;stroke-linejoin:miter;stroke:rgb(0%,0%,0%);stroke-opacity:1;stroke-miterlimit:4;" d="M 180.672557 376.685405 L 198.058214 376.685405 C 198.058214 376.685405 206.374112 401.631044 209.397365 403.141714 C 212.424524 404.656299 222.248143 420.530085 222.248143 420.530085 L 207.131879 433.382529 L 188.988456 437.159206 L 144.385711 446.986394 C 144.385711 446.986394 134.558187 452.28157 139.850832 444.720388 C 145.143478 437.159206 166.310153 428.846602 169.333406 426.576682 C 172.356659 424.310676 199.56984 403.89705 197.304354 400.875708 C 195.034961 397.850453 180.672557 376.685405 180.672557 376.685405 Z M 180.672557 376.685405 " transform="matrix(1.000061,0,0,0.998108,0,0)"/>
<path style="fill-rule:nonzero;fill:rgb(0%,0%,0%);fill-opacity:0.956863;stroke-width:0.264583;stroke-linecap:butt;stroke-linejoin:miter;stroke:rgb(0%,0%,0%);stroke-opacity:1;stroke-miterlimit:4;" d="M 277.436178 73.549323 C 281.971057 74.304659 298.602854 84.131847 302.379967 82.617262 C 306.160986 81.106592 380.242398 62.20755 380.242398 62.20755 C 380.242398 62.20755 422.575749 78.08525 375.707519 81.861927 C 328.839288 85.642518 307.672612 96.980377 307.672612 96.980377 L 288.017563 105.296895 C 288.017563 105.296895 268.362513 99.250297 273.655159 86.397853 C 278.947804 73.549323 277.436178 73.549323 277.436178 73.549323 Z M 277.436178 73.549323 " transform="matrix(1.000061,0,0,0.998108,0,0)"/>
</g>
</svg>
