<?xml version="1.0" encoding="UTF-8"?>
<svg xmlns="http://www.w3.org/2000/svg" xmlns:xlink="http://www.w3.org/1999/xlink" width="512pt" height="511pt" viewBox="0 0 512 511" version="1.1">
<g id="surface1">
<path style="fill-rule:nonzero;fill:rgb(0%,0%,0%);fill-opacity:0.956863;stroke-width:0.264583;stroke-linecap:butt;stroke-linejoin:miter;stroke:rgb(0%,0%,0%);stroke-opacity:1;stroke-miterlimit:4;" d="M 139.096972 96.980377 L 168.57564 110.588157 C 168.57564 110.588157 161.775274 111.343492 165.552387 112.102741 C 169.333406 112.858077 170.091172 124.195936 170.091172 124.195936 L 161.017508 149.141575 L 170.091172 159.728012 L 238.879939 143.094977 L 232.075667 131.001782 L 246.441977 83.376512 C 246.441977 83.376512 254.000109 50.869691 225.275301 53.135697 C 196.546588 55.405617 229.810181 29.70073 229.810181 29.70073 L 263.827634 76.570665 L 254.000109 139.314386 L 337.155186 132.512453 L 343.959458 119.66001 C 343.959458 119.66001 348.494337 83.376512 366.63776 112.102741 C 384.781183 140.828971 359.833488 131.001782 359.833488 131.001782 L 344.713318 174.091127 L 302.379967 195.256174 C 302.379967 195.256174 339.420673 152.16683 331.10868 144.605648 C 322.792782 137.04838 194.281101 168.040616 194.281101 168.040616 C 194.281101 168.040616 178.403165 186.939657 167.82178 174.846462 C 157.236489 162.749354 150.436123 161.994018 150.436123 161.994018 L 122.465175 196.766845 C 122.465175 196.766845 86.17833 201.302772 102.05236 189.964913 C 117.930296 178.62314 136.827579 154.432836 136.827579 154.432836 L 148.16673 121.92993 C 148.16673 121.92993 134.558187 100.760968 139.096972 96.980377 Z M 139.096972 96.980377 " transform="matrix(1.000061,0,0,0.998108,0,0)"/>
<path style="fill-rule:nonzero;fill:rgb(0%,0%,0%);fill-opacity:0.956863;stroke-width:0.264583;stroke-linecap:butt;stroke-linejoin:miter;stroke:rgb(0%,0%,0%);stroke-opacity:1;stroke-miterlimit:4;" d="M 117.17253 236.075599 L 133.04656 242.12611 L 319.011763 214.155216 C 319.011763 214.155216 340.178439 194.500839 353.029216 217.935807 C 365.879994 241.370774 342.447831 230.784337 342.447831 230.784337 L 302.379967 227.762995 L 182.94195 248.172707 C 182.94195 248.172707 161.017508 276.898937 142.874085 266.316413 C 124.730662 255.733889 112.637651 240.611525 117.17253 236.075599 Z M 117.17253 236.075599 " transform="matrix(1.000061,0,0,0.998108,0,0)"/>
<path style="fill-rule:nonzero;fill:rgb(0%,0%,0%);fill-opacity:0.956863;stroke-width:0.264583;stroke-linecap:butt;stroke-linejoin:miter;stroke:rgb(0%,0%,0%);stroke-opacity:1;stroke-miterlimit:4;" d="M 199.56984 277.654272 L 216.201637 283.70087 L 277.436178 262.535822 C 277.436178 262.535822 287.263702 239.100854 314.476884 265.561078 C 341.690065 292.017387 314.476884 282.190199 314.476884 282.190199 L 302.379967 326.790214 L 312.207491 327.549463 C 312.207491 327.549463 287.263702 341.912578 282.724917 342.667913 C 278.190038 343.423249 291.040815 354.761108 291.040815 354.761108 C 291.040815 354.761108 337.155186 366.102881 300.86834 398.605788 C 264.581494 431.112609 263.069868 432.62328 263.069868 432.62328 L 356.810235 429.601938 C 356.810235 429.601938 361.345115 412.968903 398.385821 435.648535 C 435.430433 458.328167 415.017617 463.619429 415.017617 463.619429 C 415.017617 463.619429 360.587348 435.648535 301.626106 438.673791 C 242.660958 441.695132 203.35086 446.986394 203.35086 446.986394 L 145.143478 465.885436 C 145.143478 465.885436 115.660904 497.636921 97.517481 472.691282 C 79.374058 447.745643 89.959349 446.986394 89.959349 446.986394 C 89.959349 446.986394 96.005854 456.813583 155.724863 446.986394 C 215.447777 437.159206 216.959403 434.137864 216.959403 434.137864 C 216.959403 434.137864 212.424524 419.774749 182.94195 408.432976 C 153.459376 397.095117 176.137678 388.7786 176.137678 388.7786 C 176.137678 388.7786 209.397365 381.976667 194.281101 367.613552 C 179.160931 353.250437 227.540788 433.382529 227.540788 433.382529 C 227.540788 433.382529 263.069868 437.159206 277.436178 391.04852 C 291.798582 344.93392 265.33926 347.959175 265.33926 347.959175 L 223.763675 361.566955 L 207.131879 350.225182 L 198.81598 370.638808 L 183.69581 361.566955 C 183.69581 361.566955 188.988456 325.279543 172.356659 310.916428 C 155.724863 296.553314 149.678357 290.506716 149.678357 290.506716 L 195.792727 305.625166 L 210.155131 339.642658 L 274.409019 329.060134 L 283.482683 285.97079 C 283.482683 285.97079 213.93615 312.427099 206.374112 294.287307 C 198.81598 276.143601 199.56984 277.654272 199.56984 277.654272 Z M 199.56984 277.654272 " transform="matrix(1.000061,0,0,0.998108,0,0)"/>
</g>
</svg>
