<?xml version="1.0" encoding="UTF-8"?>
<svg xmlns="http://www.w3.org/2000/svg" xmlns:xlink="http://www.w3.org/1999/xlink" width="512pt" height="511pt" viewBox="0 0 512 511" version="1.1">
<g id="surface1">
<path style="fill-rule:nonzero;fill:rgb(0%,0%,0%);fill-opacity:0.956863;stroke-width:0.264583;stroke-linecap:butt;stroke-linejoin:miter;stroke:rgb(0%,0%,0%);stroke-opacity:1;stroke-miterlimit:4;" d="M 77.108571 71.279403 C 82.39731 71.279403 88.447722 71.279403 92.224835 69.013397 C 96.005854 66.743477 107.345005 58.426959 128.511681 46.333765 C 149.678357 34.236656 164.040761 18.36287 167.82178 18.36287 C 171.602799 18.36287 181.430324 23.654132 181.430324 23.654132 C 181.430324 23.654132 192.769475 47.844436 157.994255 53.891033 C 123.219036 59.941544 122.465175 61.452215 122.465175 61.452215 C 122.465175 61.452215 148.924497 81.861927 123.219036 84.887183 C 97.517481 87.912438 89.959349 119.66001 89.959349 119.66001 C 89.959349 119.66001 89.959349 93.959035 81.64345 85.642518 C 73.327552 77.326001 77.108571 71.279403 77.108571 71.279403 Z M 77.108571 71.279403 " transform="matrix(1.000061,0,0,0.998108,0,0)"/>
<path style="fill-rule:nonzero;fill:rgb(0%,0%,0%);fill-opacity:0.956863;stroke-width:0.264583;stroke-linecap:butt;stroke-linejoin:miter;stroke:rgb(0%,0%,0%);stroke-opacity:1;stroke-miterlimit:4;" d="M 64.257794 174.846462 C 65.011654 178.62314 55.941895 189.209577 55.941895 189.209577 C 55.941895 189.209577 29.482574 243.636781 61.988401 219.446478 C 94.494228 195.256174 94.494228 199.036765 94.494228 199.036765 L 84.666703 245.147452 C 84.666703 245.147452 93.736462 274.629017 108.856632 294.287307 C 123.976802 313.941684 117.930296 322.254288 117.930296 322.254288 L 109.614398 339.642658 L 77.108571 347.20384 C 77.108571 347.20384 56.695755 340.397993 56.695755 357.031028 C 56.695755 373.660149 73.327552 369.124223 73.327552 369.124223 L 105.075613 362.32229 C 105.075613 362.32229 123.976802 354.761108 151.947749 372.904814 C 179.914791 391.04852 248.707464 412.213567 248.707464 412.213567 L 404.436232 453.792241 L 495.149441 409.192226 L 398.385821 412.213567 C 398.385821 412.213567 230.564041 389.533935 172.356659 365.343632 C 114.149277 341.153329 118.684156 338.887322 118.684156 338.887322 C 118.684156 338.887322 154.213236 310.916428 133.04656 285.97079 C 111.879885 261.025151 97.517481 266.316413 97.517481 266.316413 L 90.713209 245.147452 L 101.2985 209.619289 C 101.2985 209.619289 136.069813 186.184322 116.414764 169.5552 C 96.76362 152.922166 94.494228 161.994018 94.494228 161.994018 L 86.17833 183.918315 L 67.281046 197.522181 Z M 64.257794 174.846462 " transform="matrix(1.000061,0,0,0.998108,0,0)"/>
<path style="fill-rule:nonzero;fill:rgb(0%,0%,0%);fill-opacity:0.956863;stroke-width:0.264583;stroke-linecap:butt;stroke-linejoin:miter;stroke:rgb(0%,0%,0%);stroke-opacity:1;stroke-miterlimit:4;" d="M 211.666758 57.671624 L 216.959403 52.380362 L 240.391566 60.696879 L 247.195837 112.102741 L 244.930351 172.576542 L 250.976857 189.209577 L 246.441977 201.302772 L 340.178439 183.918315 L 334.885793 157.458092 L 339.420673 152.922166 L 345.471084 134.023124 C 345.471084 134.023124 342.447831 64.47747 347.736571 53.891033 C 353.029216 43.308509 356.810235 22.143461 328.081522 33.481321 C 299.356714 44.823094 263.827634 59.186208 263.827634 59.186208 C 263.827634 59.186208 248.707464 56.160953 247.953604 47.0891 C 247.195837 38.017247 278.947804 32.725985 278.947804 32.725985 L 335.64356 27.434723 C 335.64356 27.434723 346.224945 -3.561426 362.102881 20.632791 C 377.976911 44.823094 374.195892 48.599771 374.195892 48.599771 C 374.195892 48.599771 371.172639 65.232806 367.39162 63.722135 C 363.614507 62.20755 355.298609 102.275553 355.298609 102.275553 L 350.005964 129.487198 L 356.052469 165.774609 L 351.51759 183.918315 L 372.684266 183.918315 C 372.684266 183.918315 388.558296 168.795951 400.655213 189.964913 C 412.748225 211.12996 394.608708 292.017387 394.608708 292.017387 L 400.655213 308.650422 L 390.827689 352.495102 C 390.827689 352.495102 366.63776 374.415485 368.903247 332.840725 C 371.172639 291.262052 371.930406 293.528058 371.930406 293.528058 L 377.976911 297.308649 L 384.023417 298.063984 L 392.339315 217.935807 C 392.339315 217.935807 411.994364 171.065871 343.959458 190.720248 C 275.924551 210.374625 258.534989 219.446478 258.534989 219.446478 C 258.534989 219.446478 231.321807 228.518331 222.248143 215.665887 C 213.178384 202.817356 231.321807 205.838698 231.321807 205.838698 L 241.149332 197.522181 L 226.786928 174.846462 L 235.856686 158.968763 C 235.856686 158.968763 231.321807 78.08525 219.982656 68.254148 C 208.643505 58.426959 211.666758 57.671624 211.666758 57.671624 Z M 211.666758 57.671624 " transform="matrix(1.000061,0,0,0.998108,0,0)"/>
<path style="fill-rule:nonzero;fill:rgb(0%,0%,0%);fill-opacity:0.956863;stroke-width:0.264583;stroke-linecap:butt;stroke-linejoin:miter;stroke:rgb(0%,0%,0%);stroke-opacity:1;stroke-miterlimit:4;" d="M 279.701664 62.20755 C 279.701664 62.20755 310.695865 70.524068 302.379967 93.959035 C 294.064068 117.394003 295.575695 119.66001 295.575695 119.66001 C 295.575695 119.66001 318.257903 116.638668 328.839288 134.77846 C 339.420673 152.922166 309.942005 140.069722 309.942005 140.069722 L 291.040815 125.706607 C 291.040815 125.706607 269.120279 161.994018 264.581494 162.749354 C 260.046615 163.504689 235.856686 158.968763 235.856686 158.968763 L 260.046615 156.702757 C 260.046615 156.702757 303.137733 79.595921 279.701664 62.20755 Z M 279.701664 62.20755 " transform="matrix(1.000061,0,0,0.998108,0,0)"/>
<path style="fill-rule:nonzero;fill:rgb(0%,0%,0%);fill-opacity:0.956863;stroke-width:0.264583;stroke-linecap:butt;stroke-linejoin:miter;stroke:rgb(0%,0%,0%);stroke-opacity:1;stroke-miterlimit:4;" d="M 188.230689 205.838698 L 184.453576 221.712484 L 200.327607 247.417372 L 206.374112 298.063984 C 206.374112 298.063984 197.304354 320.743617 207.885739 334.351396 C 218.47103 347.959175 221.494282 333.596061 221.494282 333.596061 L 222.248143 315.452355 L 216.201637 305.625166 L 214.690011 248.172707 C 214.690011 248.172707 223.005909 231.543586 188.230689 205.838698 Z M 188.230689 205.838698 " transform="matrix(1.000061,0,0,0.998108,0,0)"/>
<path style="fill-rule:nonzero;fill:rgb(0%,0%,0%);fill-opacity:0.956863;stroke-width:0.264583;stroke-linecap:butt;stroke-linejoin:miter;stroke:rgb(0%,0%,0%);stroke-opacity:1;stroke-miterlimit:4;" d="M 237.368313 244.392116 L 257.023362 251.953298 L 309.184238 233.054257 L 317.500137 217.935807 L 334.131933 229.273666 C 334.131933 229.273666 365.879994 235.320263 348.494337 250.438714 C 331.10868 265.561078 331.862541 301.08924 331.862541 301.08924 L 343.201692 307.891173 L 282.724917 317.718361 L 281.971057 305.625166 L 318.253997 295.797978 C 318.253997 295.797978 328.081522 243.636781 325.058269 247.417372 C 322.035016 251.197963 313.719118 247.417372 313.719118 247.417372 L 275.924551 257.999896 C 275.924551 257.999896 263.069868 252.708634 272.897392 280.679528 C 282.724917 308.650422 283.482683 319.232946 283.482683 322.254288 C 283.482683 325.279543 276.678412 332.840725 276.678412 332.840725 C 276.678412 332.840725 266.850887 338.887322 260.046615 307.135837 C 253.242343 275.388266 248.707464 263.291157 248.707464 263.291157 L 232.833434 252.708634 C 232.833434 252.708634 205.620252 245.147452 237.368313 244.392116 Z M 237.368313 244.392116 " transform="matrix(1.000061,0,0,0.998108,0,0)"/>
</g>
</svg>
