<?xml version="1.0" encoding="UTF-8"?>
<svg xmlns="http://www.w3.org/2000/svg" xmlns:xlink="http://www.w3.org/1999/xlink" width="512pt" height="512pt" viewBox="0 0 512 512" version="1.1">
<g id="surface1">
<path style="fill-rule:nonzero;fill:rgb(0%,0%,0%);fill-opacity:1;stroke-width:1;stroke-linecap:butt;stroke-linejoin:miter;stroke:rgb(0%,0%,0%);stroke-opacity:1;stroke-miterlimit:4;" d="M 93.570312 232.103623 L 139.285156 249.962998 C 139.285156 249.962998 152.855469 252.103623 150.714844 283.53331 C 148.570312 314.962998 142.144531 345.677841 142.144531 345.677841 C 142.144531 345.677841 132.855469 331.388779 132.144531 324.248154 C 131.429688 317.103623 119.285156 316.388779 109.285156 327.103623 C 99.285156 337.818466 82.144531 325.677841 77.855469 314.962998 C 73.570312 304.248154 95.714844 303.53331 95.714844 303.53331 L 124.285156 297.103623 C 124.285156 297.103623 128.570312 265.677841 110.714844 255.677841 C 92.855469 245.677841 91.429688 237.818466 93.570312 232.103623 Z M 93.570312 232.103623 " transform="matrix(1,0,0,1,0,-161.53331)"/>
<path style="fill-rule:nonzero;fill:rgb(0%,0%,0%);fill-opacity:1;stroke-width:1;stroke-linecap:butt;stroke-linejoin:miter;stroke:rgb(0%,0%,0%);stroke-opacity:1;stroke-miterlimit:4;" d="M 182.144531 178.53331 C 182.144531 178.53331 213.570312 221.388779 197.144531 267.103623 C 180.714844 312.818466 168.570312 346.388779 168.570312 346.388779 C 168.570312 346.388779 205 324.248154 208.570312 310.677841 C 212.144531 297.103623 276.429688 284.248154 286.429688 278.53331 C 296.429688 272.818466 295 260.677841 277.855469 266.388779 C 260.714844 272.103623 218.570312 279.248154 218.570312 279.248154 C 218.570312 279.248154 252.144531 219.248154 225 197.818466 C 197.855469 176.388779 182.144531 172.103623 182.144531 178.53331 Z M 182.144531 178.53331 " transform="matrix(1,0,0,1,0,-161.53331)"/>
<path style="fill-rule:nonzero;fill:rgb(0%,0%,0%);fill-opacity:1;stroke-width:1;stroke-linecap:butt;stroke-linejoin:miter;stroke:rgb(0%,0%,0%);stroke-opacity:1;stroke-miterlimit:4;" d="M 71.429688 359.248154 C 93.570312 369.962998 112.855469 379.248154 112.855469 379.248154 C 112.855469 379.248154 121.429688 397.103623 124.285156 412.818466 C 127.144531 428.53331 138.570312 429.962998 138.570312 429.962998 L 147.144531 425.677841 C 147.144531 425.677841 149.285156 400.677841 160 412.103623 C 170.714844 423.53331 194.285156 418.53331 194.285156 418.53331 L 200.714844 386.388779 C 200.714844 386.388779 212.144531 364.962998 181.429688 377.103623 C 150.714844 389.248154 136.429688 388.53331 127.855469 378.53331 C 119.285156 368.53331 162.855469 369.962998 162.855469 369.962998 L 201.429688 357.103623 C 201.429688 357.103623 210.714844 336.388779 223.570312 350.677841 C 236.429688 364.962998 233.570312 364.962998 222.144531 373.53331 C 210.714844 382.103623 205.714844 415.677841 205.714844 415.677841 C 205.714844 415.677841 245.714844 427.818466 213.570312 428.53331 C 181.429688 429.248154 175 434.962998 175 434.962998 L 165.714844 462.818466 L 177.144531 474.248154 L 244.285156 462.818466 L 270.714844 471.388779 L 258.570312 454.248154 L 319.285156 450.677841 C 319.285156 450.677841 331.429688 396.388779 324.285156 387.103623 C 317.144531 377.818466 311.429688 370.677841 311.429688 370.677841 C 311.429688 370.677841 347.855469 370.677841 341.429688 390.677841 C 335 410.677841 335.714844 432.818466 335.714844 432.818466 C 335.714844 432.818466 362.144531 410.677841 365 399.248154 C 367.855469 387.818466 359.285156 370.677841 359.285156 370.677841 C 359.285156 370.677841 381.429688 377.103623 382.855469 388.53331 C 384.285156 399.962998 370 416.388779 370 416.388779 L 334.285156 445.677841 L 336.429688 451.388779 L 410.714844 433.53331 C 410.714844 433.53331 452.144531 457.818466 421.429688 458.53331 C 390.714844 459.248154 337.144531 462.818466 337.144531 462.818466 L 329.285156 471.388779 L 333.570312 541.388779 C 333.570312 541.388779 342.855469 565.677841 334.285156 572.818466 C 325.714844 579.962998 300.714844 551.388779 307.144531 544.962998 C 313.570312 538.53331 325 512.818466 323.570312 487.818466 C 322.144531 462.818466 322.855469 448.53331 302.144531 462.818466 C 281.429688 477.103623 257.144531 486.388779 257.144531 486.388779 C 257.144531 486.388779 229.285156 477.103623 197.855469 481.388779 C 166.429688 485.677841 163.570312 489.248154 163.570312 489.248154 L 165.714844 624.248154 L 159.285156 640.677841 C 159.285156 640.677841 141.429688 632.103623 135.714844 613.53331 C 130 594.962998 145 602.818466 145 602.818466 L 154.285156 518.53331 C 154.285156 518.53331 180.714844 475.677841 131.429688 492.103623 C 82.144531 508.53331 57.855469 517.818466 57.855469 517.818466 L 50.714844 534.962998 C 50.714844 534.962998 30.714844 537.103623 26.429688 521.388779 C 22.144531 505.677841 26.429688 502.818466 26.429688 502.818466 L 62.855469 499.962998 L 147.144531 474.962998 L 152.144531 451.388779 C 152.144531 451.388779 150 439.962998 135 443.53331 C 120 447.103623 123.570312 464.248154 123.570312 464.248154 C 123.570312 464.248154 105 447.818466 107.144531 436.388779 C 109.285156 424.962998 99.285156 393.53331 99.285156 393.53331 C 99.285156 393.53331 72.144531 399.248154 71.429688 359.248154 Z M 71.429688 359.248154 " transform="matrix(1,0,0,1,0,-161.53331)"/>
<path style="fill-rule:nonzero;fill:rgb(0%,0%,0%);fill-opacity:1;stroke-width:1;stroke-linecap:butt;stroke-linejoin:miter;stroke:rgb(0%,0%,0%);stroke-opacity:1;stroke-miterlimit:4;" d="M 316.429688 267.818466 L 322.144531 277.103623 L 350.714844 289.248154 L 362.140625 299.271591 L 340.421875 327.052841 C 340.421875 327.052841 419.214844 318.462998 421.234375 316.443466 C 423.253906 314.423935 435.375 285.634873 462.648438 308.361435 C 489.925781 331.091904 492.953125 335.130966 489.417969 335.638779 C 485.882812 336.142685 479.824219 343.212998 479.824219 343.212998 L 471.234375 356.849716 C 471.234375 356.849716 462.648438 450.795029 462.648438 452.81456 C 462.648438 454.834091 457.597656 536.65831 457.597656 536.65831 L 457.09375 579.084091 L 441.4375 634.642685 C 441.4375 634.642685 432.851562 629.591904 427.800781 591.205185 C 422.75 552.818466 432.34375 575.548935 432.34375 575.548935 L 444.46875 529.587998 L 446.488281 432.107529 L 447.496094 359.37706 C 447.496094 359.37706 463.660156 331.59581 422.75 333.111435 C 381.835938 334.62706 369.210938 340.181748 369.210938 340.181748 L 357.089844 353.818466 L 330.824219 339.173935 C 330.824219 339.173935 295.976562 384.123154 278.296875 385.638779 C 260.621094 387.154404 259.609375 384.630966 259.609375 384.630966 L 319.207031 335.638779 C 319.207031 335.638779 326.785156 316.443466 316.683594 298.767685 C 306.582031 281.087998 316.429688 267.818466 316.429688 267.818466 Z M 316.429688 267.818466 " transform="matrix(1,0,0,1,0,-161.53331)"/>
<path style="fill-rule:nonzero;fill:rgb(0%,0%,0%);fill-opacity:1;stroke-width:1;stroke-linecap:butt;stroke-linejoin:miter;stroke:rgb(0%,0%,0%);stroke-opacity:1;stroke-miterlimit:4;" d="M 279.8125 395.236435 C 279.8125 395.236435 294.460938 403.318466 302.539062 393.72081 C 310.621094 384.123154 303.046875 405.841904 303.046875 405.841904 L 314.15625 425.541123 C 314.15625 425.541123 303.046875 438.166123 291.429688 421.50206 C 279.8125 404.834091 279.8125 395.236435 279.8125 395.236435 Z M 279.8125 395.236435 " transform="matrix(1,0,0,1,0,-161.53331)"/>
<path style="fill-rule:nonzero;fill:rgb(0%,0%,0%);fill-opacity:1;stroke-width:1;stroke-linecap:butt;stroke-linejoin:miter;stroke:rgb(0%,0%,0%);stroke-opacity:1;stroke-miterlimit:4;" d="M 270.722656 511.90831 C 270.722656 511.90831 297.488281 537.162216 275.773438 547.263779 C 254.054688 557.365341 242.4375 557.365341 242.4375 557.365341 Z M 270.722656 511.90831 " transform="matrix(1,0,0,1,0,-161.53331)"/>
<path style="fill-rule:nonzero;fill:rgb(0%,0%,0%);fill-opacity:1;stroke-width:1;stroke-linecap:butt;stroke-linejoin:miter;stroke:rgb(0%,0%,0%);stroke-opacity:1;stroke-miterlimit:4;" d="M 359.613281 493.724716 C 359.613281 493.724716 387.394531 540.697373 398.503906 542.716904 C 409.617188 544.740341 413.152344 531.103623 413.152344 531.103623 C 413.152344 531.103623 421.234375 507.869248 359.613281 493.724716 Z M 359.613281 493.724716 " transform="matrix(1,0,0,1,0,-161.53331)"/>
</g>
</svg>
