<?xml version="1.0" encoding="UTF-8"?>
<svg xmlns="http://www.w3.org/2000/svg" xmlns:xlink="http://www.w3.org/1999/xlink" width="512pt" height="511pt" viewBox="0 0 512 511" version="1.1">
<g id="surface1">
<path style="fill-rule:nonzero;fill:rgb(0%,0%,0%);fill-opacity:0.956863;stroke-width:0.264583;stroke-linecap:butt;stroke-linejoin:miter;stroke:rgb(0%,0%,0%);stroke-opacity:1;stroke-miterlimit:4;" d="M 176.137678 38.017247 C 176.137678 38.017247 244.172585 69.013397 204.108626 76.570665 C 164.040761 84.131847 148.924497 86.397853 148.924497 86.397853 C 148.924497 86.397853 202.596999 60.696879 176.137678 38.017247 Z M 176.137678 38.017247 " transform="matrix(1.000061,0,0,0.998108,0,0)"/>
<path style="fill-rule:nonzero;fill:rgb(0%,0%,0%);fill-opacity:0.956863;stroke-width:0.264583;stroke-linecap:butt;stroke-linejoin:miter;stroke:rgb(0%,0%,0%);stroke-opacity:1;stroke-miterlimit:4;" d="M 308.430378 23.654132 C 308.430378 23.654132 345.471084 18.36287 356.052469 41.042503 C 366.63776 63.722135 332.620307 53.891033 332.620307 53.891033 L 296.333461 56.916288 C 296.333461 56.916288 336.39742 40.287167 308.430378 23.654132 Z M 308.430378 23.654132 " transform="matrix(1.000061,0,0,0.998108,0,0)"/>
<path style="fill-rule:nonzero;fill:rgb(0%,0%,0%);fill-opacity:0.956863;stroke-width:0.264583;stroke-linecap:butt;stroke-linejoin:miter;stroke:rgb(0%,0%,0%);stroke-opacity:1;stroke-miterlimit:4;" d="M 143.631851 125.706607 C 143.631851 125.706607 179.160931 137.803715 190.500082 131.757118 C 201.839233 125.706607 205.620252 135.533795 205.620252 135.533795 L 200.327607 146.120233 L 139.850832 164.260025 C 139.850832 164.260025 157.236489 189.209577 167.82178 171.065871 C 178.403165 152.922166 198.058214 158.213427 198.058214 158.213427 L 190.500082 180.89306 L 100.540733 217.935807 L 125.488428 227.00766 L 141.362459 212.644545 L 182.184184 197.522181 L 93.736462 332.081476 L 72.569786 335.106731 L 103.563986 336.617402 L 169.333406 252.708634 L 178.403165 259.510567 L 173.114425 313.941684 L 174.626052 346.444591 L 171.602799 366.102881 L 173.868285 403.89705 L 174.626052 432.62328 C 174.626052 432.62328 145.897338 485.539812 184.453576 465.1301 C 223.005909 444.720388 272.143532 404.656299 272.143532 404.656299 L 291.798582 381.976667 L 350.005964 416.749494 L 389.316062 439.429126 C 389.316062 439.429126 430.891648 446.986394 396.874194 417.504829 C 362.856741 388.023264 285.74817 378.196076 285.74817 378.196076 L 239.637705 415.994158 C 239.637705 415.994158 182.184184 472.691282 182.184184 403.141714 C 182.184184 333.596061 192.769475 354.761108 192.769475 354.761108 L 262.316008 326.034879 L 272.897392 332.081476 C 272.897392 332.081476 275.924551 350.225182 280.459431 290.506716 C 284.99431 230.784337 282.724917 225.493075 282.724917 225.493075 C 282.724917 225.493075 265.33926 219.446478 257.781128 221.712484 C 250.21909 223.982404 215.447777 201.302772 215.447777 201.302772 L 206.374112 206.594034 L 228.298554 227.00766 L 194.281101 242.881445 L 196.546588 263.291157 L 264.581494 234.564928 C 264.581494 234.564928 263.827634 234.564928 266.850887 236.075599 C 269.87414 237.590183 270.631906 260.269816 270.631906 260.269816 L 266.850887 319.988281 L 190.500082 347.959175 L 179.160931 335.862067 L 188.988456 310.916428 L 254.757876 276.898937 L 241.149332 270.097004 L 192.011708 297.308649 L 196.546588 262.535822 L 194.281101 242.12611 L 178.403165 242.12611 L 201.839233 184.673651 L 248.707464 175.601798 L 288.017563 215.665887 L 300.86834 247.417372 L 313.719118 248.928043 L 394.608708 309.405757 L 461.131988 301.08924 L 369.661013 258.755231 L 327.327661 235.320263 L 325.058269 221.712484 L 306.160986 196.766845 L 288.775329 205.083363 L 256.269502 174.846462 L 309.942005 167.28528 L 315.98851 152.922166 L 206.374112 177.112469 L 214.690011 143.850313 L 300.86834 131.757118 L 302.379967 117.394003 L 291.040815 115.124083 L 216.201637 139.314386 L 207.885739 120.415345 L 269.87414 93.959035 L 307.672612 94.714371 L 293.310208 78.840585 L 238.879939 99.250297 Z M 143.631851 125.706607 " transform="matrix(1.000061,0,0,0.998108,0,0)"/>
<path style="fill-rule:nonzero;fill:rgb(0%,0%,0%);fill-opacity:0.956863;stroke-width:0.264583;stroke-linecap:butt;stroke-linejoin:miter;stroke:rgb(0%,0%,0%);stroke-opacity:1;stroke-miterlimit:4;" d="M 298.602854 330.570805 L 314.476884 313.941684 L 318.253997 304.114495 L 332.620307 305.625166 L 328.081522 317.718361 L 300.86834 331.326141 L 301.626106 331.326141 Z M 298.602854 330.570805 " transform="matrix(1.000061,0,0,0.998108,0,0)"/>
<path style="fill-rule:nonzero;fill:rgb(0%,0%,0%);fill-opacity:0.956863;stroke-width:0.264583;stroke-linecap:butt;stroke-linejoin:miter;stroke:rgb(0%,0%,0%);stroke-opacity:1;stroke-miterlimit:4;" d="M 223.763675 379.706747 L 270.631906 353.250437 L 270.631906 366.102881 Z M 223.763675 379.706747 " transform="matrix(1.000061,0,0,0.998108,0,0)"/>
</g>
</svg>
