<?xml version="1.0" standalone="no"?>
<!DOCTYPE svg PUBLIC "-//W3C//DTD SVG 1.1//EN" "http://www.w3.org/Graphics/SVG/1.1/DTD/svg11.dtd" >
<svg xmlns="http://www.w3.org/2000/svg" xmlns:xlink="http://www.w3.org/1999/xlink" version="1.1" viewBox="0 0 256 256">
  <g transform="matrix(1 0 0 -1 0 204)">
   <path fill="currentColor"
d="M72 189v4q1 1 3 -1q9 -11 5 -17q-5 -11 -11 -23q47 12 127 22q-1 4 3 6q3 3 9 0q10 -8 24 -14q5 -3 7 -6q1 -2 -1 -4q0 -9 -26 12q-3 2 -11 1q-6 0 -40 -6q1 -3 11 -6q5 -2 4 -9q-2 -8 0 -29q1 -5 2 -8q7 -70 0 -108q-1 -3 -1 -2q-4 -12 -7 -16q-2 -1 -5 0t-4 1
q-2 0 -4 1q-22 6 -41 17q-4 4 1 2q25 -9 44 -12l1 1q9 0 12 9q4 18 1 69q-5 54 -12 80q-4 6 -4 9q-53 -8 -77 -16q-3 -2 -14 2q-1 -3 -1 -6q-1 -5 -1 -9q-5 -28 -5 -82q-1 -4 6 -14q2 -5 6 -11q2 -4 3 -5q4 -8 0 -8q-2 -3 -10 6q-6 6 -12 11q-5 2 -4 9q-1 2 4 5q1 0 2 1v5
q0 5 1 17q-1 39 1 54v20q-30 -46 -49 -52q-2 0 -1 2q10 9 34 45q5 8 12 17q18 25 18 36zM134 136q6 0 9 -2q4 -3 9 -4v-1q3 -1 3 -3q-1 -3 -5 -4q-2 -1 -7 -6q-4 -4 -6 -7q5 0 14 3q5 1 7 -2v-1q0 -2 -1 -3q-1 -4 -10 -4q-21 -3 -45 -15q-5 -3 -8 2q-2 3 1 4q2 0 5 3
q-7 6 -8 9q-2 3 -1 7q-1 3 -2 5q-3 4 6 2q4 4 35 14l1 1q1 2 3 2zM129 126q-12 -5 -18 -6q-5 -2 -8 -2q-5 -1 -7 -2q2 -11 13 -16q16 2 23 23q1 2 1 3h-4z" />
  </g>

</svg>
